<svg width="235" height="124" viewBox="0 0 235 124" fill="none" xmlns="http://www.w3.org/2000/svg">
<g filter="url(#filter0_d_363_70)">
<mask id="path-1-outside-1_363_70" maskUnits="userSpaceOnUse" x="5" y="0" width="226" height="97" fill="black">
<rect fill="white" x="5" width="226" height="97"/>
<path d="M6.02412 77.7995V63.7005L47.9366 3.71558H68.8288V62.1624H80.108V77.7995H68.8288V96H50.8846V77.7995H6.02412ZM52.0382 22.9415L25.7627 62.1624H52.0382V22.9415ZM82.5603 48.0634C82.5603 33.2808 85.2092 21.7025 90.507 13.3285C95.8903 4.95458 104.777 0.767601 117.167 0.767601C129.557 0.767601 138.401 4.95458 143.699 13.3285C149.082 21.7025 151.774 33.2808 151.774 48.0634C151.774 62.9314 149.082 74.5951 143.699 83.0545C138.401 91.514 129.557 95.7437 117.167 95.7437C104.777 95.7437 95.8903 91.514 90.507 83.0545C85.2092 74.5951 82.5603 62.9314 82.5603 48.0634ZM134.086 48.0634C134.086 41.7402 133.659 36.4424 132.804 32.1699C132.035 27.8121 130.411 24.2659 127.933 21.5316C125.541 18.7972 121.952 17.4301 117.167 17.4301C112.382 17.4301 108.75 18.7972 106.272 21.5316C103.88 24.2659 102.256 27.8121 101.402 32.1699C100.633 36.4424 100.248 41.7402 100.248 48.0634C100.248 54.5575 100.633 60.0262 101.402 64.4695C102.171 68.8274 103.794 72.3735 106.272 75.1078C108.75 77.7567 112.382 79.0812 117.167 79.0812C121.952 79.0812 125.584 77.7567 128.062 75.1078C130.54 72.3735 132.163 68.8274 132.932 64.4695C133.701 60.0262 134.086 54.5575 134.086 48.0634ZM155.681 77.7995V63.7005L197.593 3.71558H218.486V62.1624H229.765V77.7995H218.486V96H200.541V77.7995H155.681ZM201.695 22.9415L175.42 62.1624H201.695V22.9415Z"/>
</mask>
<path d="M6.02412 77.7995H5.52412V78.2995H6.02412V77.7995ZM6.02412 63.7005L5.61426 63.4141L5.52412 63.5431V63.7005H6.02412ZM47.9366 3.71558V3.21558H47.676L47.5268 3.4292L47.9366 3.71558ZM68.8288 3.71558H69.3288V3.21558H68.8288V3.71558ZM68.8288 62.1624H68.3288V62.6624H68.8288V62.1624ZM80.108 62.1624H80.608V61.6624H80.108V62.1624ZM80.108 77.7995V78.2995H80.608V77.7995H80.108ZM68.8288 77.7995V77.2995H68.3288V77.7995H68.8288ZM68.8288 96V96.5H69.3288V96H68.8288ZM50.8846 96H50.3846V96.5H50.8846V96ZM50.8846 77.7995H51.3846V77.2995H50.8846V77.7995ZM52.0382 22.9415H52.5382V21.2968L51.6228 22.6632L52.0382 22.9415ZM25.7627 62.1624L25.3473 61.8841L24.8259 62.6624H25.7627V62.1624ZM52.0382 62.1624V62.6624H52.5382V62.1624H52.0382ZM6.52412 77.7995V63.7005H5.52412V77.7995H6.52412ZM6.43398 63.9868L48.3465 4.00195L47.5268 3.4292L5.61426 63.4141L6.43398 63.9868ZM47.9366 4.21558H68.8288V3.21558H47.9366V4.21558ZM68.3288 3.71558V62.1624H69.3288V3.71558H68.3288ZM68.8288 62.6624H80.108V61.6624H68.8288V62.6624ZM79.608 62.1624V77.7995H80.608V62.1624H79.608ZM80.108 77.2995H68.8288V78.2995H80.108V77.2995ZM68.3288 77.7995V96H69.3288V77.7995H68.3288ZM68.8288 95.5H50.8846V96.5H68.8288V95.5ZM51.3846 96V77.7995H50.3846V96H51.3846ZM50.8846 77.2995H6.02412V78.2995H50.8846V77.2995ZM51.6228 22.6632L25.3473 61.8841L26.1781 62.4407L52.4536 23.2198L51.6228 22.6632ZM25.7627 62.6624H52.0382V61.6624H25.7627V62.6624ZM52.5382 62.1624V22.9415H51.5382V62.1624H52.5382ZM90.507 13.3285L90.0864 13.0581L90.0845 13.0612L90.507 13.3285ZM143.699 13.3285L143.276 13.5959L143.278 13.5989L143.699 13.3285ZM143.699 83.0545L143.277 82.7861L143.275 82.7892L143.699 83.0545ZM90.507 83.0545L90.0833 83.3199L90.0852 83.323L90.507 83.0545ZM132.804 32.1699L132.312 32.2569L132.314 32.268L132.804 32.1699ZM127.933 21.5316L127.557 21.8609L127.563 21.8674L127.933 21.5316ZM106.272 21.5316L105.902 21.1958L105.896 21.2023L106.272 21.5316ZM101.402 32.1699L100.911 32.0737L100.91 32.0814L101.402 32.1699ZM101.402 64.4695L100.909 64.5548L100.909 64.5564L101.402 64.4695ZM106.272 75.1078L105.902 75.4436L105.907 75.4494L106.272 75.1078ZM128.062 75.1078L128.427 75.4495L128.432 75.4436L128.062 75.1078ZM132.932 64.4695L133.425 64.5564L133.425 64.5548L132.932 64.4695ZM83.0603 48.0634C83.0603 33.3319 85.7015 21.8596 90.9296 13.5959L90.0845 13.0612C84.717 21.5453 82.0603 33.2297 82.0603 48.0634H83.0603ZM90.9276 13.5989C96.1958 5.40395 104.899 1.2676 117.167 1.2676V0.267601C104.654 0.267601 95.5848 4.50521 90.0864 13.0582L90.9276 13.5989ZM117.167 1.2676C129.435 1.2676 138.094 5.40391 143.276 13.5959L144.121 13.0612C138.708 4.50525 129.679 0.267601 117.167 0.267601V1.2676ZM143.278 13.5989C148.59 21.862 151.274 33.333 151.274 48.0634H152.274C152.274 33.2285 149.574 21.5429 144.119 13.0582L143.278 13.5989ZM151.274 48.0634C151.274 62.8794 148.59 74.4368 143.277 82.7861L144.121 83.323C149.574 74.7535 152.274 62.9834 152.274 48.0634H151.274ZM143.275 82.7892C138.091 91.0662 129.433 95.2437 117.167 95.2437V96.2437C129.681 96.2437 138.711 91.9617 144.123 83.3199L143.275 82.7892ZM117.167 95.2437C104.902 95.2437 96.198 91.0662 90.9289 82.7861L90.0852 83.323C95.5826 91.9617 104.652 96.2437 117.167 96.2437V95.2437ZM90.9308 82.7892C85.7015 74.4392 83.0603 62.8805 83.0603 48.0634H82.0603C82.0603 62.9823 84.7169 74.7511 90.0833 83.3199L90.9308 82.7892ZM134.586 48.0634C134.586 41.7206 134.157 36.3875 133.294 32.0719L132.314 32.268C133.16 36.4973 133.586 41.7598 133.586 48.0634H134.586ZM133.296 32.083C132.514 27.651 130.857 24.0128 128.304 21.1958L127.563 21.8674C129.966 24.5191 131.556 27.9731 132.312 32.2568L133.296 32.083ZM128.31 21.2023C125.794 18.3277 122.048 16.9301 117.167 16.9301V17.9301C121.856 17.9301 125.287 19.2668 127.557 21.8608L128.31 21.2023ZM117.167 16.9301C112.285 16.9301 108.501 18.328 105.902 21.1958L106.643 21.8674C109 19.2665 112.479 17.9301 117.167 17.9301V16.9301ZM105.896 21.2023C103.434 24.0162 101.779 27.6486 100.911 32.0737L101.892 32.2661C102.734 27.9756 104.326 24.5157 106.649 21.8608L105.896 21.2023ZM100.91 32.0814C100.134 36.3929 99.7482 41.7226 99.7482 48.0634H100.748C100.748 41.7577 101.132 36.4918 101.894 32.2585L100.91 32.0814ZM99.7482 48.0634C99.7482 54.5747 100.134 60.074 100.909 64.5548L101.894 64.3842C101.132 59.9783 100.748 54.5402 100.748 48.0634H99.7482ZM100.909 64.5564C101.691 68.9884 103.349 72.6266 105.902 75.4436L106.643 74.7721C104.24 72.1204 102.65 68.6663 101.894 64.3826L100.909 64.5564ZM105.907 75.4494C108.507 78.2288 112.29 79.5812 117.167 79.5812V78.5812C112.474 78.5812 108.993 77.2846 106.637 74.7663L105.907 75.4494ZM117.167 79.5812C122.044 79.5812 125.827 78.2288 128.427 75.4494L127.697 74.7663C125.341 77.2846 121.86 78.5812 117.167 78.5812V79.5812ZM128.432 75.4436C130.985 72.6266 132.642 68.9884 133.425 64.5564L132.44 64.3826C131.684 68.6663 130.094 72.1204 127.691 74.7721L128.432 75.4436ZM133.425 64.5548C134.2 60.074 134.586 54.5747 134.586 48.0634H133.586C133.586 54.5402 133.202 59.9783 132.44 64.3842L133.425 64.5548ZM155.681 77.7995H155.181V78.2995H155.681V77.7995ZM155.681 63.7005L155.271 63.4141L155.181 63.5431V63.7005H155.681ZM197.593 3.71558V3.21558H197.333L197.184 3.4292L197.593 3.71558ZM218.486 3.71558H218.986V3.21558H218.486V3.71558ZM218.486 62.1624H217.986V62.6624H218.486V62.1624ZM229.765 62.1624H230.265V61.6624H229.765V62.1624ZM229.765 77.7995V78.2995H230.265V77.7995H229.765ZM218.486 77.7995V77.2995H217.986V77.7995H218.486ZM218.486 96V96.5H218.986V96H218.486ZM200.541 96H200.041V96.5H200.541V96ZM200.541 77.7995H201.041V77.2995H200.541V77.7995ZM201.695 22.9415H202.195V21.2968L201.28 22.6632L201.695 22.9415ZM175.42 62.1624L175.004 61.8841L174.483 62.6624H175.42V62.1624ZM201.695 62.1624V62.6624H202.195V62.1624H201.695ZM156.181 77.7995V63.7005H155.181V77.7995H156.181ZM156.091 63.9868L198.003 4.00195L197.184 3.4292L155.271 63.4141L156.091 63.9868ZM197.593 4.21558H218.486V3.21558H197.593V4.21558ZM217.986 3.71558V62.1624H218.986V3.71558H217.986ZM218.486 62.6624H229.765V61.6624H218.486V62.6624ZM229.265 62.1624V77.7995H230.265V62.1624H229.265ZM229.765 77.2995H218.486V78.2995H229.765V77.2995ZM217.986 77.7995V96H218.986V77.7995H217.986ZM218.486 95.5H200.541V96.5H218.486V95.5ZM201.041 96V77.7995H200.041V96H201.041ZM200.541 77.2995H155.681V78.2995H200.541V77.2995ZM201.28 22.6632L175.004 61.8841L175.835 62.4407L202.11 23.2198L201.28 22.6632ZM175.42 62.6624H201.695V61.6624H175.42V62.6624ZM202.195 62.1624V22.9415H201.195V62.1624H202.195Z" fill="white" fill-opacity="0.5" mask="url(#path-1-outside-1_363_70)"/>
<g filter="url(#filter1_b_363_70)">
<path d="M6.02412 77.7995V63.7005L47.9366 3.71558H68.8288V62.1624H80.108V77.7995H68.8288V96H50.8846V77.7995H6.02412ZM52.0382 22.9415L25.7627 62.1624H52.0382V22.9415ZM82.5603 48.0634C82.5603 33.2808 85.2092 21.7025 90.507 13.3285C95.8903 4.95458 104.777 0.767601 117.167 0.767601C129.557 0.767601 138.401 4.95458 143.699 13.3285C149.082 21.7025 151.774 33.2808 151.774 48.0634C151.774 62.9314 149.082 74.5951 143.699 83.0545C138.401 91.514 129.557 95.7437 117.167 95.7437C104.777 95.7437 95.8903 91.514 90.507 83.0545C85.2092 74.5951 82.5603 62.9314 82.5603 48.0634ZM134.086 48.0634C134.086 41.7402 133.659 36.4424 132.804 32.1699C132.035 27.8121 130.411 24.2659 127.933 21.5316C125.541 18.7972 121.952 17.4301 117.167 17.4301C112.382 17.4301 108.75 18.7972 106.272 21.5316C103.88 24.2659 102.256 27.8121 101.402 32.1699C100.633 36.4424 100.248 41.7402 100.248 48.0634C100.248 54.5575 100.633 60.0262 101.402 64.4695C102.171 68.8274 103.794 72.3735 106.272 75.1078C108.75 77.7567 112.382 79.0812 117.167 79.0812C121.952 79.0812 125.584 77.7567 128.062 75.1078C130.54 72.3735 132.163 68.8274 132.932 64.4695C133.701 60.0262 134.086 54.5575 134.086 48.0634ZM155.681 77.7995V63.7005L197.593 3.71558H218.486V62.1624H229.765V77.7995H218.486V96H200.541V77.7995H155.681ZM201.695 22.9415L175.42 62.1624H201.695V22.9415Z" fill="#D9D9D9" fill-opacity="0.1"/>
</g>
<mask id="path-4-outside-2_363_70" maskUnits="userSpaceOnUse" x="33" y="87" width="187" height="29" fill="black">
<rect fill="white" x="33" y="87" width="187" height="29"/>
<path d="M47.4585 95.109C47.4585 96.1074 47.2178 97.0435 46.7364 97.9172C46.2728 98.7909 45.5329 99.4951 44.5166 100.03C43.5181 100.565 42.2522 100.832 40.7188 100.832H37.5897V108H33.8454V89.3321H40.7188C42.163 89.3321 43.3933 89.5817 44.4096 90.0809C45.4259 90.5802 46.1837 91.2666 46.6829 92.1403C47.2 93.014 47.4585 94.0035 47.4585 95.109ZM40.5584 97.8102C41.5925 97.8102 42.3592 97.5784 42.8584 97.1148C43.3577 96.6334 43.6073 95.9648 43.6073 95.109C43.6073 93.2903 42.591 92.381 40.5584 92.381H37.5897V97.8102H40.5584ZM47.282 100.538C47.282 99.0405 47.5762 97.7121 48.1646 96.5532C48.7708 95.3943 49.582 94.5028 50.5983 93.8787C51.6325 93.2547 52.7825 92.9426 54.0484 92.9426C55.1539 92.9426 56.1167 93.1655 56.9369 93.6113C57.7749 94.057 58.4435 94.6187 58.9427 95.2962V93.1833H62.7138V108H58.9427V105.834C58.4613 106.529 57.7927 107.109 56.9369 107.572C56.0989 108.018 55.1271 108.241 54.0217 108.241C52.7736 108.241 51.6325 107.92 50.5983 107.278C49.582 106.636 48.7708 105.736 48.1646 104.577C47.5762 103.4 47.282 102.054 47.282 100.538ZM58.9427 100.592C58.9427 99.6823 58.7644 98.9067 58.4078 98.2649C58.0512 97.6052 57.5698 97.1059 56.9636 96.7672C56.3574 96.4106 55.7066 96.2323 55.0112 96.2323C54.3159 96.2323 53.674 96.4016 53.0856 96.7404C52.4972 97.0792 52.0158 97.5784 51.6414 98.2381C51.2848 98.88 51.1065 99.6467 51.1065 100.538C51.1065 101.43 51.2848 102.214 51.6414 102.892C52.0158 103.551 52.4972 104.06 53.0856 104.416C53.6918 104.773 54.3337 104.951 55.0112 104.951C55.7066 104.951 56.3574 104.782 56.9636 104.443C57.5698 104.086 58.0512 103.587 58.4078 102.945C58.7644 102.286 58.9427 101.501 58.9427 100.592ZM70.3022 92.9426C71.4077 92.9426 72.3794 93.1655 73.2174 93.6113C74.0554 94.0392 74.7151 94.6008 75.1965 95.2962V93.1833H78.9675V108.107C78.9675 109.48 78.6912 110.701 78.1384 111.771C77.5857 112.859 76.7566 113.714 75.6512 114.339C74.5457 114.98 73.2085 115.301 71.6394 115.301C69.5355 115.301 67.806 114.811 66.4509 113.83C65.1137 112.85 64.3559 111.512 64.1776 109.819H67.8952C68.0913 110.496 68.5103 111.031 69.1522 111.423C69.8119 111.833 70.6053 112.038 71.5325 112.038C72.6201 112.038 73.5027 111.709 74.1802 111.049C74.8577 110.407 75.1965 109.426 75.1965 108.107V105.807C74.7151 106.502 74.0465 107.082 73.1906 107.545C72.3526 108.009 71.3898 108.241 70.3022 108.241C69.0541 108.241 67.913 107.92 66.8789 107.278C65.8447 106.636 65.0245 105.736 64.4183 104.577C63.8299 103.4 63.5358 102.054 63.5358 100.538C63.5358 99.0405 63.8299 97.7121 64.4183 96.5532C65.0245 95.3943 65.8358 94.5028 66.8521 93.8787C67.8862 93.2547 69.0363 92.9426 70.3022 92.9426ZM75.1965 100.592C75.1965 99.6823 75.0182 98.9067 74.6616 98.2649C74.305 97.6052 73.8236 97.1059 73.2174 96.7672C72.6112 96.4106 71.9604 96.2323 71.265 96.2323C70.5697 96.2323 69.9278 96.4016 69.3394 96.7404C68.751 97.0792 68.2696 97.5784 67.8952 98.2381C67.5386 98.88 67.3603 99.6467 67.3603 100.538C67.3603 101.43 67.5386 102.214 67.8952 102.892C68.2696 103.551 68.751 104.06 69.3394 104.416C69.9456 104.773 70.5875 104.951 71.265 104.951C71.9604 104.951 72.6112 104.782 73.2174 104.443C73.8236 104.086 74.305 103.587 74.6616 102.945C75.0182 102.286 75.1965 101.501 75.1965 100.592ZM94.5259 100.271C94.5259 100.806 94.4903 101.287 94.419 101.715H83.5873C83.6764 102.785 84.0509 103.623 84.7106 104.229C85.3703 104.835 86.1815 105.138 87.1444 105.138C88.5351 105.138 89.5247 104.541 90.113 103.346H94.1515C93.7236 104.773 92.9034 105.95 91.691 106.877C90.4786 107.786 88.9898 108.241 87.2246 108.241C85.7982 108.241 84.5145 107.929 83.3733 107.305C82.2501 106.663 81.3675 105.762 80.7256 104.603C80.1015 103.444 79.7895 102.107 79.7895 100.592C79.7895 99.0583 80.1015 97.7121 80.7256 96.5532C81.3496 95.3943 82.2233 94.5028 83.3466 93.8787C84.4699 93.2547 85.7625 92.9426 87.2246 92.9426C88.6332 92.9426 89.8902 93.2457 90.9956 93.852C92.1189 94.4582 92.9837 95.3229 93.5899 96.4462C94.2139 97.5517 94.5259 98.8265 94.5259 100.271ZM90.6479 99.2009C90.6301 98.2381 90.2824 97.4714 89.6049 96.9009C88.9274 96.3125 88.0983 96.0183 87.1176 96.0183C86.1905 96.0183 85.4059 96.3036 84.7641 96.8741C84.14 97.4269 83.7567 98.2025 83.614 99.2009H90.6479ZM115.854 108H112.11L103.632 95.1892V108H99.8875V89.3053H103.632L112.11 102.143V89.3053H115.854V108ZM124.261 108.241C122.835 108.241 121.551 107.929 120.41 107.305C119.269 106.663 118.369 105.762 117.709 104.603C117.067 103.444 116.746 102.107 116.746 100.592C116.746 99.0761 117.076 97.7389 117.736 96.5799C118.413 95.421 119.331 94.5295 120.49 93.9055C121.649 93.2636 122.942 92.9426 124.368 92.9426C125.795 92.9426 127.087 93.2636 128.246 93.9055C129.405 94.5295 130.315 95.421 130.974 96.5799C131.652 97.7389 131.991 99.0761 131.991 100.592C131.991 102.107 131.643 103.444 130.948 104.603C130.27 105.762 129.343 106.663 128.166 107.305C127.007 107.929 125.706 108.241 124.261 108.241ZM124.261 104.978C124.939 104.978 125.572 104.817 126.16 104.496C126.767 104.158 127.248 103.658 127.605 102.999C127.961 102.339 128.139 101.537 128.139 100.592C128.139 99.1831 127.765 98.1044 127.016 97.3555C126.285 96.5889 125.385 96.2055 124.315 96.2055C123.245 96.2055 122.345 96.5889 121.614 97.3555C120.9 98.1044 120.544 99.1831 120.544 100.592C120.544 102 120.892 103.088 121.587 103.855C122.3 104.603 123.192 104.978 124.261 104.978ZM137.225 96.259V103.427C137.225 103.926 137.34 104.291 137.572 104.523C137.822 104.737 138.232 104.844 138.802 104.844H140.541V108H138.187C135.031 108 133.454 106.467 133.454 103.4V96.259H131.688V93.1833H133.454V89.5193H137.225V93.1833H140.541V96.259H137.225ZM157.39 89.3321V92.3543H149.607V97.1416H155.571V100.11H149.607V108H145.863V89.3321H157.39ZM164.752 108.241C163.325 108.241 162.042 107.929 160.9 107.305C159.759 106.663 158.859 105.762 158.199 104.603C157.557 103.444 157.236 102.107 157.236 100.592C157.236 99.0761 157.566 97.7389 158.226 96.5799C158.903 95.421 159.822 94.5295 160.981 93.9055C162.14 93.2636 163.432 92.9426 164.859 92.9426C166.285 92.9426 167.578 93.2636 168.737 93.9055C169.896 94.5295 170.805 95.421 171.465 96.5799C172.142 97.7389 172.481 99.0761 172.481 100.592C172.481 102.107 172.133 103.444 171.438 104.603C170.76 105.762 169.833 106.663 168.656 107.305C167.498 107.929 166.196 108.241 164.752 108.241ZM164.752 104.978C165.429 104.978 166.062 104.817 166.651 104.496C167.257 104.158 167.738 103.658 168.095 102.999C168.451 102.339 168.63 101.537 168.63 100.592C168.63 99.1831 168.255 98.1044 167.506 97.3555C166.775 96.5889 165.875 96.2055 164.805 96.2055C163.735 96.2055 162.835 96.5889 162.104 97.3555C161.391 98.1044 161.034 99.1831 161.034 100.592C161.034 102 161.382 103.088 162.077 103.855C162.79 104.603 163.682 104.978 164.752 104.978ZM187.343 93.1833V108H183.572V106.128C183.091 106.77 182.458 107.278 181.673 107.652C180.906 108.009 180.068 108.187 179.159 108.187C178 108.187 176.975 107.947 176.083 107.465C175.192 106.966 174.488 106.244 173.971 105.299C173.471 104.336 173.222 103.195 173.222 101.875V93.1833H176.966V101.341C176.966 102.517 177.26 103.427 177.849 104.069C178.437 104.693 179.239 105.005 180.256 105.005C181.29 105.005 182.101 104.693 182.689 104.069C183.278 103.427 183.572 102.517 183.572 101.341V93.1833H187.343ZM197.376 92.9694C199.141 92.9694 200.567 93.531 201.655 94.6543C202.743 95.7598 203.286 97.311 203.286 99.3079V108H199.542V99.8161C199.542 98.6393 199.248 97.7389 198.66 97.1148C198.071 96.473 197.269 96.152 196.253 96.152C195.218 96.152 194.398 96.473 193.792 97.1148C193.204 97.7389 192.909 98.6393 192.909 99.8161V108H189.165V93.1833H192.909V95.0287C193.409 94.3869 194.042 93.8876 194.808 93.531C195.593 93.1566 196.449 92.9694 197.376 92.9694ZM204.012 100.538C204.012 99.0405 204.306 97.7121 204.895 96.5532C205.501 95.3943 206.321 94.5028 207.355 93.8787C208.389 93.2547 209.539 92.9426 210.805 92.9426C211.768 92.9426 212.686 93.1566 213.56 93.5845C214.434 93.9946 215.129 94.5473 215.646 95.2427V88.2088H219.444V108H215.646V105.807C215.183 106.538 214.532 107.126 213.694 107.572C212.856 108.018 211.884 108.241 210.779 108.241C209.53 108.241 208.389 107.92 207.355 107.278C206.321 106.636 205.501 105.736 204.895 104.577C204.306 103.4 204.012 102.054 204.012 100.538ZM215.673 100.592C215.673 99.6823 215.495 98.9067 215.138 98.2649C214.781 97.6052 214.3 97.1059 213.694 96.7672C213.088 96.4106 212.437 96.2323 211.741 96.2323C211.046 96.2323 210.404 96.4016 209.816 96.7404C209.227 97.0792 208.746 97.5784 208.372 98.2381C208.015 98.88 207.837 99.6467 207.837 100.538C207.837 101.43 208.015 102.214 208.372 102.892C208.746 103.551 209.227 104.06 209.816 104.416C210.422 104.773 211.064 104.951 211.741 104.951C212.437 104.951 213.088 104.782 213.694 104.443C214.3 104.086 214.781 103.587 215.138 102.945C215.495 102.286 215.673 101.501 215.673 100.592Z"/>
</mask>
<path d="M47.4585 95.109C47.4585 96.1074 47.2178 97.0435 46.7364 97.9172C46.2728 98.7909 45.5329 99.4951 44.5166 100.03C43.5181 100.565 42.2522 100.832 40.7188 100.832H37.5897V108H33.8454V89.3321H40.7188C42.163 89.3321 43.3933 89.5817 44.4096 90.0809C45.4259 90.5802 46.1837 91.2666 46.6829 92.1403C47.2 93.014 47.4585 94.0035 47.4585 95.109ZM40.5584 97.8102C41.5925 97.8102 42.3592 97.5784 42.8584 97.1148C43.3577 96.6334 43.6073 95.9648 43.6073 95.109C43.6073 93.2903 42.591 92.381 40.5584 92.381H37.5897V97.8102H40.5584ZM47.282 100.538C47.282 99.0405 47.5762 97.7121 48.1646 96.5532C48.7708 95.3943 49.582 94.5028 50.5983 93.8787C51.6325 93.2547 52.7825 92.9426 54.0484 92.9426C55.1539 92.9426 56.1167 93.1655 56.9369 93.6113C57.7749 94.057 58.4435 94.6187 58.9427 95.2962V93.1833H62.7138V108H58.9427V105.834C58.4613 106.529 57.7927 107.109 56.9369 107.572C56.0989 108.018 55.1271 108.241 54.0217 108.241C52.7736 108.241 51.6325 107.92 50.5983 107.278C49.582 106.636 48.7708 105.736 48.1646 104.577C47.5762 103.4 47.282 102.054 47.282 100.538ZM58.9427 100.592C58.9427 99.6823 58.7644 98.9067 58.4078 98.2649C58.0512 97.6052 57.5698 97.1059 56.9636 96.7672C56.3574 96.4106 55.7066 96.2323 55.0112 96.2323C54.3159 96.2323 53.674 96.4016 53.0856 96.7404C52.4972 97.0792 52.0158 97.5784 51.6414 98.2381C51.2848 98.88 51.1065 99.6467 51.1065 100.538C51.1065 101.43 51.2848 102.214 51.6414 102.892C52.0158 103.551 52.4972 104.06 53.0856 104.416C53.6918 104.773 54.3337 104.951 55.0112 104.951C55.7066 104.951 56.3574 104.782 56.9636 104.443C57.5698 104.086 58.0512 103.587 58.4078 102.945C58.7644 102.286 58.9427 101.501 58.9427 100.592ZM70.3022 92.9426C71.4077 92.9426 72.3794 93.1655 73.2174 93.6113C74.0554 94.0392 74.7151 94.6008 75.1965 95.2962V93.1833H78.9675V108.107C78.9675 109.48 78.6912 110.701 78.1384 111.771C77.5857 112.859 76.7566 113.714 75.6512 114.339C74.5457 114.98 73.2085 115.301 71.6394 115.301C69.5355 115.301 67.806 114.811 66.4509 113.83C65.1137 112.85 64.3559 111.512 64.1776 109.819H67.8952C68.0913 110.496 68.5103 111.031 69.1522 111.423C69.8119 111.833 70.6053 112.038 71.5325 112.038C72.6201 112.038 73.5027 111.709 74.1802 111.049C74.8577 110.407 75.1965 109.426 75.1965 108.107V105.807C74.7151 106.502 74.0465 107.082 73.1906 107.545C72.3526 108.009 71.3898 108.241 70.3022 108.241C69.0541 108.241 67.913 107.92 66.8789 107.278C65.8447 106.636 65.0245 105.736 64.4183 104.577C63.8299 103.4 63.5358 102.054 63.5358 100.538C63.5358 99.0405 63.8299 97.7121 64.4183 96.5532C65.0245 95.3943 65.8358 94.5028 66.8521 93.8787C67.8862 93.2547 69.0363 92.9426 70.3022 92.9426ZM75.1965 100.592C75.1965 99.6823 75.0182 98.9067 74.6616 98.2649C74.305 97.6052 73.8236 97.1059 73.2174 96.7672C72.6112 96.4106 71.9604 96.2323 71.265 96.2323C70.5697 96.2323 69.9278 96.4016 69.3394 96.7404C68.751 97.0792 68.2696 97.5784 67.8952 98.2381C67.5386 98.88 67.3603 99.6467 67.3603 100.538C67.3603 101.43 67.5386 102.214 67.8952 102.892C68.2696 103.551 68.751 104.06 69.3394 104.416C69.9456 104.773 70.5875 104.951 71.265 104.951C71.9604 104.951 72.6112 104.782 73.2174 104.443C73.8236 104.086 74.305 103.587 74.6616 102.945C75.0182 102.286 75.1965 101.501 75.1965 100.592ZM94.5259 100.271C94.5259 100.806 94.4903 101.287 94.419 101.715H83.5873C83.6764 102.785 84.0509 103.623 84.7106 104.229C85.3703 104.835 86.1815 105.138 87.1444 105.138C88.5351 105.138 89.5247 104.541 90.113 103.346H94.1515C93.7236 104.773 92.9034 105.95 91.691 106.877C90.4786 107.786 88.9898 108.241 87.2246 108.241C85.7982 108.241 84.5145 107.929 83.3733 107.305C82.2501 106.663 81.3675 105.762 80.7256 104.603C80.1015 103.444 79.7895 102.107 79.7895 100.592C79.7895 99.0583 80.1015 97.7121 80.7256 96.5532C81.3496 95.3943 82.2233 94.5028 83.3466 93.8787C84.4699 93.2547 85.7625 92.9426 87.2246 92.9426C88.6332 92.9426 89.8902 93.2457 90.9956 93.852C92.1189 94.4582 92.9837 95.3229 93.5899 96.4462C94.2139 97.5517 94.5259 98.8265 94.5259 100.271ZM90.6479 99.2009C90.6301 98.2381 90.2824 97.4714 89.6049 96.9009C88.9274 96.3125 88.0983 96.0183 87.1176 96.0183C86.1905 96.0183 85.4059 96.3036 84.7641 96.8741C84.14 97.4269 83.7567 98.2025 83.614 99.2009H90.6479ZM115.854 108H112.11L103.632 95.1892V108H99.8875V89.3053H103.632L112.11 102.143V89.3053H115.854V108ZM124.261 108.241C122.835 108.241 121.551 107.929 120.41 107.305C119.269 106.663 118.369 105.762 117.709 104.603C117.067 103.444 116.746 102.107 116.746 100.592C116.746 99.0761 117.076 97.7389 117.736 96.5799C118.413 95.421 119.331 94.5295 120.49 93.9055C121.649 93.2636 122.942 92.9426 124.368 92.9426C125.795 92.9426 127.087 93.2636 128.246 93.9055C129.405 94.5295 130.315 95.421 130.974 96.5799C131.652 97.7389 131.991 99.0761 131.991 100.592C131.991 102.107 131.643 103.444 130.948 104.603C130.27 105.762 129.343 106.663 128.166 107.305C127.007 107.929 125.706 108.241 124.261 108.241ZM124.261 104.978C124.939 104.978 125.572 104.817 126.16 104.496C126.767 104.158 127.248 103.658 127.605 102.999C127.961 102.339 128.139 101.537 128.139 100.592C128.139 99.1831 127.765 98.1044 127.016 97.3555C126.285 96.5889 125.385 96.2055 124.315 96.2055C123.245 96.2055 122.345 96.5889 121.614 97.3555C120.9 98.1044 120.544 99.1831 120.544 100.592C120.544 102 120.892 103.088 121.587 103.855C122.3 104.603 123.192 104.978 124.261 104.978ZM137.225 96.259V103.427C137.225 103.926 137.34 104.291 137.572 104.523C137.822 104.737 138.232 104.844 138.802 104.844H140.541V108H138.187C135.031 108 133.454 106.467 133.454 103.4V96.259H131.688V93.1833H133.454V89.5193H137.225V93.1833H140.541V96.259H137.225ZM157.39 89.3321V92.3543H149.607V97.1416H155.571V100.11H149.607V108H145.863V89.3321H157.39ZM164.752 108.241C163.325 108.241 162.042 107.929 160.9 107.305C159.759 106.663 158.859 105.762 158.199 104.603C157.557 103.444 157.236 102.107 157.236 100.592C157.236 99.0761 157.566 97.7389 158.226 96.5799C158.903 95.421 159.822 94.5295 160.981 93.9055C162.14 93.2636 163.432 92.9426 164.859 92.9426C166.285 92.9426 167.578 93.2636 168.737 93.9055C169.896 94.5295 170.805 95.421 171.465 96.5799C172.142 97.7389 172.481 99.0761 172.481 100.592C172.481 102.107 172.133 103.444 171.438 104.603C170.76 105.762 169.833 106.663 168.656 107.305C167.498 107.929 166.196 108.241 164.752 108.241ZM164.752 104.978C165.429 104.978 166.062 104.817 166.651 104.496C167.257 104.158 167.738 103.658 168.095 102.999C168.451 102.339 168.63 101.537 168.63 100.592C168.63 99.1831 168.255 98.1044 167.506 97.3555C166.775 96.5889 165.875 96.2055 164.805 96.2055C163.735 96.2055 162.835 96.5889 162.104 97.3555C161.391 98.1044 161.034 99.1831 161.034 100.592C161.034 102 161.382 103.088 162.077 103.855C162.79 104.603 163.682 104.978 164.752 104.978ZM187.343 93.1833V108H183.572V106.128C183.091 106.77 182.458 107.278 181.673 107.652C180.906 108.009 180.068 108.187 179.159 108.187C178 108.187 176.975 107.947 176.083 107.465C175.192 106.966 174.488 106.244 173.971 105.299C173.471 104.336 173.222 103.195 173.222 101.875V93.1833H176.966V101.341C176.966 102.517 177.26 103.427 177.849 104.069C178.437 104.693 179.239 105.005 180.256 105.005C181.29 105.005 182.101 104.693 182.689 104.069C183.278 103.427 183.572 102.517 183.572 101.341V93.1833H187.343ZM197.376 92.9694C199.141 92.9694 200.567 93.531 201.655 94.6543C202.743 95.7598 203.286 97.311 203.286 99.3079V108H199.542V99.8161C199.542 98.6393 199.248 97.7389 198.66 97.1148C198.071 96.473 197.269 96.152 196.253 96.152C195.218 96.152 194.398 96.473 193.792 97.1148C193.204 97.7389 192.909 98.6393 192.909 99.8161V108H189.165V93.1833H192.909V95.0287C193.409 94.3869 194.042 93.8876 194.808 93.531C195.593 93.1566 196.449 92.9694 197.376 92.9694ZM204.012 100.538C204.012 99.0405 204.306 97.7121 204.895 96.5532C205.501 95.3943 206.321 94.5028 207.355 93.8787C208.389 93.2547 209.539 92.9426 210.805 92.9426C211.768 92.9426 212.686 93.1566 213.56 93.5845C214.434 93.9946 215.129 94.5473 215.646 95.2427V88.2088H219.444V108H215.646V105.807C215.183 106.538 214.532 107.126 213.694 107.572C212.856 108.018 211.884 108.241 210.779 108.241C209.53 108.241 208.389 107.92 207.355 107.278C206.321 106.636 205.501 105.736 204.895 104.577C204.306 103.4 204.012 102.054 204.012 100.538ZM215.673 100.592C215.673 99.6823 215.495 98.9067 215.138 98.2649C214.781 97.6052 214.3 97.1059 213.694 96.7672C213.088 96.4106 212.437 96.2323 211.741 96.2323C211.046 96.2323 210.404 96.4016 209.816 96.7404C209.227 97.0792 208.746 97.5784 208.372 98.2381C208.015 98.88 207.837 99.6467 207.837 100.538C207.837 101.43 208.015 102.214 208.372 102.892C208.746 103.551 209.227 104.06 209.816 104.416C210.422 104.773 211.064 104.951 211.741 104.951C212.437 104.951 213.088 104.782 213.694 104.443C214.3 104.086 214.781 103.587 215.138 102.945C215.495 102.286 215.673 101.501 215.673 100.592Z" fill="#D9D9D9"/>
<path d="M46.7364 97.9172L46.5412 97.8096L46.5395 97.8127L46.7364 97.9172ZM44.5166 100.03L44.4128 99.8328L44.4114 99.8336L44.5166 100.03ZM37.5897 100.832V100.61H37.3668V100.832H37.5897ZM37.5897 108V108.223H37.8126V108H37.5897ZM33.8454 108H33.6225V108.223H33.8454V108ZM33.8454 89.3321V89.1092H33.6225V89.3321H33.8454ZM44.4096 90.0809L44.3114 90.281L44.4096 90.0809ZM46.6829 92.1403L46.4894 92.2509L46.4911 92.2538L46.6829 92.1403ZM42.8584 97.1148L43.0101 97.2782L43.0131 97.2753L42.8584 97.1148ZM37.5897 92.381V92.1581H37.3668V92.381H37.5897ZM37.5897 97.8102H37.3668V98.0331H37.5897V97.8102ZM47.2357 95.109C47.2357 96.0699 47.0045 96.9689 46.5412 97.8096L46.9316 98.0247C47.4312 97.1181 47.6814 96.145 47.6814 95.109H47.2357ZM46.5395 97.8127C46.1002 98.6407 45.396 99.3153 44.4128 99.8328L44.6204 100.227C45.6698 99.6749 46.4455 98.941 46.9333 98.0216L46.5395 97.8127ZM44.4114 99.8336C43.4547 100.346 42.2279 100.61 40.7188 100.61V101.055C42.2765 101.055 43.5816 100.784 44.6218 100.226L44.4114 99.8336ZM40.7188 100.61H37.5897V101.055H40.7188V100.61ZM37.3668 100.832V108H37.8126V100.832H37.3668ZM37.5897 107.777H33.8454V108.223H37.5897V107.777ZM34.0683 108V89.3321H33.6225V108H34.0683ZM33.8454 89.555H40.7188V89.1092H33.8454V89.555ZM40.7188 89.555C42.1381 89.555 43.3329 89.8003 44.3114 90.281L44.5079 89.8809C43.4538 89.3631 42.188 89.1092 40.7188 89.1092V89.555ZM44.3114 90.281C45.2929 90.7631 46.015 91.4206 46.4894 92.2509L46.8764 92.0297C46.3524 91.1126 45.559 90.3972 44.5079 89.8809L44.3114 90.281ZM46.4911 92.2538C46.9861 93.0901 47.2357 94.0398 47.2357 95.109H47.6814C47.6814 93.9672 47.4139 92.9378 46.8747 92.0268L46.4911 92.2538ZM40.5584 98.0331C41.6204 98.0331 42.4527 97.7957 43.0101 97.2782L42.7068 96.9515C42.2657 97.3611 41.5646 97.5873 40.5584 97.5873V98.0331ZM43.0131 97.2753C43.5657 96.7424 43.8301 96.0102 43.8301 95.109H43.3844C43.3844 95.9194 43.1496 96.5244 42.7037 96.9544L43.0131 97.2753ZM43.8301 95.109C43.8301 94.1585 43.5634 93.4067 42.9937 92.8969C42.4286 92.3913 41.6033 92.1581 40.5584 92.1581V92.6039C41.546 92.6039 42.2452 92.8253 42.6964 93.2291C43.143 93.6286 43.3844 94.2408 43.3844 95.109H43.8301ZM40.5584 92.1581H37.5897V92.6039H40.5584V92.1581ZM37.3668 92.381V97.8102H37.8126V92.381H37.3668ZM37.5897 98.0331H40.5584V97.5873H37.5897V98.0331ZM48.1646 96.5532L47.9671 96.4499L47.9658 96.4523L48.1646 96.5532ZM50.5983 93.8787L50.4832 93.6879L50.4817 93.6888L50.5983 93.8787ZM56.9369 93.6113L56.8304 93.8071L56.8322 93.808L56.9369 93.6113ZM58.9427 95.2962L58.7633 95.4284L59.1656 95.9744V95.2962H58.9427ZM58.9427 93.1833V92.9605H58.7199V93.1833H58.9427ZM62.7138 93.1833H62.9366V92.9605H62.7138V93.1833ZM62.7138 108V108.223H62.9366V108H62.7138ZM58.9427 108H58.7199V108.223H58.9427V108ZM58.9427 105.834H59.1656V105.12L58.7595 105.707L58.9427 105.834ZM56.9369 107.572L57.0415 107.769L57.043 107.768L56.9369 107.572ZM50.5983 107.278L50.4793 107.466L50.4808 107.467L50.5983 107.278ZM48.1646 104.577L47.9652 104.676L47.9671 104.68L48.1646 104.577ZM58.4078 98.2649L58.2118 98.3709L58.213 98.3731L58.4078 98.2649ZM56.9636 96.7672L56.8506 96.9593L56.8549 96.9617L56.9636 96.7672ZM53.0856 96.7404L52.9744 96.5473L52.9744 96.5473L53.0856 96.7404ZM51.6414 98.2381L51.4476 98.1281L51.4466 98.1299L51.6414 98.2381ZM51.6414 102.892L51.4441 102.996L51.4476 103.002L51.6414 102.892ZM53.0856 104.416L52.9701 104.607L52.9726 104.608L53.0856 104.416ZM56.9636 104.443L57.0724 104.638L57.0766 104.635L56.9636 104.443ZM58.4078 102.945L58.6027 103.053L58.6039 103.051L58.4078 102.945ZM47.5048 100.538C47.5048 99.0702 47.793 97.7773 48.3633 96.6541L47.9658 96.4523C47.3593 97.647 47.0591 99.0108 47.0591 100.538H47.5048ZM48.362 96.6565C48.9515 95.5296 49.7362 94.6696 50.715 94.0686L50.4817 93.6888C49.4279 94.3359 48.5901 95.2589 47.9671 96.4499L48.362 96.6565ZM50.7135 94.0695C51.7112 93.4675 52.821 93.1655 54.0484 93.1655V92.7198C52.744 92.7198 51.5538 93.0418 50.4832 93.6879L50.7135 94.0695ZM54.0484 93.1655C55.1236 93.1655 56.0485 93.3821 56.8304 93.8071L57.0433 93.4154C56.1849 92.9489 55.1842 92.7198 54.0484 92.7198V93.1655ZM56.8322 93.808C57.6446 94.2401 58.2862 94.7809 58.7633 95.4284L59.1222 95.164C58.6008 94.4564 57.9052 93.8739 57.0415 93.4145L56.8322 93.808ZM59.1656 95.2962V93.1833H58.7199V95.2962H59.1656ZM58.9427 93.4062H62.7138V92.9605H58.9427V93.4062ZM62.4909 93.1833V108H62.9366V93.1833H62.4909ZM62.7138 107.777H58.9427V108.223H62.7138V107.777ZM59.1656 108V105.834H58.7199V108H59.1656ZM58.7595 105.707C58.3008 106.369 57.6604 106.927 56.8307 107.376L57.043 107.768C57.925 107.29 58.6218 106.689 59.126 105.961L58.7595 105.707ZM56.8322 107.375C56.0314 107.801 55.0967 108.018 54.0217 108.018V108.464C55.1576 108.464 56.1664 108.234 57.0415 107.769L56.8322 107.375ZM54.0217 108.018C52.814 108.018 51.7138 107.708 50.7159 107.089L50.4808 107.467C51.5512 108.132 52.7332 108.464 54.0217 108.464V108.018ZM50.7174 107.089C49.7371 106.47 48.9517 105.601 48.362 104.473L47.9671 104.68C48.5898 105.871 49.4269 106.802 50.4793 107.466L50.7174 107.089ZM48.3639 104.477C47.7932 103.336 47.5048 102.024 47.5048 100.538H47.0591C47.0591 102.083 47.3592 103.464 47.9652 104.676L48.3639 104.477ZM59.1656 100.592C59.1656 99.6534 58.9816 98.8386 58.6027 98.1566L58.213 98.3731C58.5473 98.9749 58.7199 99.7113 58.7199 100.592H59.1656ZM58.6039 98.1589C58.2289 97.4651 57.7184 96.9337 57.0723 96.5726L56.8549 96.9617C57.4212 97.2782 57.8736 97.7453 58.2118 98.3708L58.6039 98.1589ZM57.0766 96.5751C56.4366 96.1985 55.7468 96.0094 55.0112 96.0094V96.4551C55.6664 96.4551 56.2782 96.6226 56.8506 96.9593L57.0766 96.5751ZM55.0112 96.0094C54.2778 96.0094 53.5975 96.1885 52.9744 96.5473L53.1968 96.9336C53.7505 96.6148 54.3539 96.4551 55.0112 96.4551V96.0094ZM52.9744 96.5473C52.3476 96.9081 51.8393 97.438 51.4476 98.1281L51.8352 98.3481C52.1924 97.7189 52.6468 97.2502 53.1968 96.9336L52.9744 96.5473ZM51.4466 98.1299C51.068 98.8113 50.8836 99.6169 50.8836 100.538H51.3294C51.3294 99.6765 51.5016 98.9487 51.8362 98.3464L51.4466 98.1299ZM50.8836 100.538C50.8836 101.46 51.0681 102.281 51.4442 102.996L51.8386 102.788C51.5014 102.147 51.3294 101.399 51.3294 100.538H50.8836ZM51.4476 103.002C51.8388 103.691 52.3459 104.228 52.9701 104.607L53.2011 104.226C52.6486 103.891 52.1928 103.412 51.8352 102.782L51.4476 103.002ZM52.9726 104.608C53.6117 104.984 54.2924 105.174 55.0112 105.174V104.728C54.375 104.728 53.7719 104.561 53.1986 104.224L52.9726 104.608ZM55.0112 105.174C55.7446 105.174 56.4328 104.995 57.0723 104.637L56.8549 104.248C56.282 104.569 55.6686 104.728 55.0112 104.728V105.174ZM57.0766 104.635C57.7186 104.257 58.2276 103.728 58.6027 103.053L58.213 102.837C57.8748 103.446 57.421 103.915 56.8506 104.251L57.0766 104.635ZM58.6039 103.051C58.9815 102.353 59.1656 101.53 59.1656 100.592H58.7199C58.7199 101.472 58.5474 102.218 58.2118 102.839L58.6039 103.051ZM73.2174 93.6113L73.1127 93.8081L73.116 93.8098L73.2174 93.6113ZM75.1965 95.2962L75.0133 95.423L75.4194 96.0097V95.2962H75.1965ZM75.1965 93.1833V92.9605H74.9736V93.1833H75.1965ZM78.9675 93.1833H79.1904V92.9605H78.9675V93.1833ZM78.1384 111.771L77.9404 111.669L77.9398 111.67L78.1384 111.771ZM75.6512 114.339L75.5416 114.144L75.5393 114.146L75.6512 114.339ZM66.4509 113.83L66.3191 114.01L66.3203 114.011L66.4509 113.83ZM64.1776 109.819V109.596H63.9301L63.956 109.842L64.1776 109.819ZM67.8952 109.819L68.1092 109.757L68.0627 109.596H67.8952V109.819ZM69.1522 111.423L69.2698 111.234L69.2684 111.233L69.1522 111.423ZM74.1802 111.049L74.0269 110.887L74.0247 110.889L74.1802 111.049ZM75.1965 105.807H75.4194V105.093L75.0133 105.68L75.1965 105.807ZM73.1906 107.545L73.0845 107.349L73.0828 107.35L73.1906 107.545ZM66.8789 107.278L66.9964 107.089L66.9964 107.089L66.8789 107.278ZM64.4183 104.577L64.219 104.676L64.2208 104.68L64.4183 104.577ZM64.4183 96.5532L64.2208 96.4499L64.2196 96.4523L64.4183 96.5532ZM66.8521 93.8787L66.737 93.6879L66.7355 93.6888L66.8521 93.8787ZM74.6616 98.2649L74.4655 98.3709L74.4668 98.3731L74.6616 98.2649ZM73.2174 96.7672L73.1044 96.9593L73.1087 96.9617L73.2174 96.7672ZM69.3394 96.7404L69.2282 96.5473L69.2282 96.5473L69.3394 96.7404ZM67.8952 98.2381L67.7013 98.1281L67.7003 98.1299L67.8952 98.2381ZM67.8952 102.892L67.6978 102.996L67.7013 103.002L67.8952 102.892ZM69.3394 104.416L69.2239 104.607L69.2264 104.608L69.3394 104.416ZM73.2174 104.443L73.3261 104.638L73.3304 104.635L73.2174 104.443ZM74.6616 102.945L74.8565 103.053L74.8577 103.051L74.6616 102.945ZM70.3022 93.1655C71.3772 93.1655 72.3119 93.382 73.1127 93.808L73.3221 93.4145C72.4469 92.949 71.4381 92.7198 70.3022 92.7198V93.1655ZM73.116 93.8098C73.925 94.2228 74.5551 94.7612 75.0133 95.423L75.3798 95.1693C74.8751 94.4404 74.1858 93.8555 73.3188 93.4128L73.116 93.8098ZM75.4194 95.2962V93.1833H74.9736V95.2962H75.4194ZM75.1965 93.4062H78.9675V92.9605H75.1965V93.4062ZM78.7447 93.1833V108.107H79.1904V93.1833H78.7447ZM78.7447 108.107C78.7447 109.449 78.4747 110.635 77.9404 111.669L78.3365 111.873C78.9077 110.768 79.1904 109.51 79.1904 108.107H78.7447ZM77.9398 111.67C77.4078 112.717 76.6105 113.541 75.5416 114.144L75.7607 114.533C76.9028 113.888 77.7637 113 78.3371 111.872L77.9398 111.67ZM75.5393 114.146C74.4747 114.764 73.1781 115.078 71.6394 115.078V115.524C73.2389 115.524 74.6167 115.197 75.7631 114.531L75.5393 114.146ZM71.6394 115.078C69.5702 115.078 67.8898 114.597 66.5816 113.65L66.3203 114.011C67.7222 115.025 69.5008 115.524 71.6394 115.524V115.078ZM66.5827 113.651C65.2977 112.708 64.5712 111.429 64.3993 109.795L63.956 109.842C64.1406 111.596 64.9297 112.991 66.3191 114.01L66.5827 113.651ZM64.1776 110.042H67.8952V109.596H64.1776V110.042ZM67.6811 109.881C67.8938 110.615 68.35 111.194 69.036 111.614L69.2684 111.233C68.6705 110.868 68.2888 110.377 68.1092 109.757L67.6811 109.881ZM69.0345 111.613C69.7359 112.049 70.5719 112.261 71.5325 112.261V111.816C70.6388 111.816 69.8879 111.618 69.2698 111.234L69.0345 111.613ZM71.5325 112.261C72.6688 112.261 73.6102 111.915 74.3357 111.209L74.0247 110.889C73.3951 111.502 72.5714 111.816 71.5325 111.816V112.261ZM74.3335 111.211C75.0712 110.512 75.4194 109.462 75.4194 108.107H74.9736C74.9736 109.391 74.6442 110.302 74.0269 110.887L74.3335 111.211ZM75.4194 108.107V105.807H74.9736V108.107H75.4194ZM75.0133 105.68C74.5546 106.343 73.9142 106.9 73.0845 107.349L73.2968 107.741C74.1787 107.264 74.8756 106.662 75.3798 105.934L75.0133 105.68ZM73.0828 107.35C72.282 107.793 71.3573 108.018 70.3022 108.018V108.464C71.4224 108.464 72.4232 108.225 73.2985 107.74L73.0828 107.35ZM70.3022 108.018C69.0945 108.018 67.9943 107.708 66.9964 107.089L66.7613 107.467C67.8317 108.132 69.0137 108.464 70.3022 108.464V108.018ZM66.9964 107.089C65.9987 106.469 65.205 105.6 64.6158 104.473L64.2208 104.68C64.8441 105.871 65.6908 106.803 66.7613 107.467L66.9964 107.089ZM64.6177 104.477C64.047 103.336 63.7586 102.024 63.7586 100.538H63.3129C63.3129 102.083 63.6129 103.464 64.219 104.676L64.6177 104.477ZM63.7586 100.538C63.7586 99.0702 64.0468 97.7773 64.6171 96.6541L64.2196 96.4523C63.6131 97.647 63.3129 99.0108 63.3129 100.538H63.7586ZM64.6158 96.6565C65.2053 95.5296 65.99 94.6696 66.9687 94.0686L66.7355 93.6888C65.6816 94.3359 64.8438 95.2589 64.2208 96.4499L64.6158 96.6565ZM66.9673 94.0695C67.9649 93.4675 69.0748 93.1655 70.3022 93.1655V92.7198C68.9977 92.7198 67.8076 93.0418 66.737 93.6879L66.9673 94.0695ZM75.4194 100.592C75.4194 99.6534 75.2353 98.8386 74.8564 98.1566L74.4668 98.3731C74.8011 98.9749 74.9736 99.7113 74.9736 100.592H75.4194ZM74.8577 98.1589C74.4826 97.4651 73.9722 96.9337 73.3261 96.5726L73.1087 96.9617C73.675 97.2782 74.1274 97.7453 74.4656 98.3708L74.8577 98.1589ZM73.3304 96.5751C72.6903 96.1985 72.0006 96.0094 71.265 96.0094V96.4551C71.9202 96.4551 72.532 96.6226 73.1044 96.9593L73.3304 96.5751ZM71.265 96.0094C70.5316 96.0094 69.8512 96.1885 69.2282 96.5473L69.4506 96.9336C70.0043 96.6148 70.6077 96.4551 71.265 96.4551V96.0094ZM69.2282 96.5473C68.6014 96.9081 68.093 97.438 67.7013 98.1281L68.089 98.3481C68.4461 97.7189 68.9006 97.2502 69.4506 96.9336L69.2282 96.5473ZM67.7003 98.1299C67.3218 98.8113 67.1374 99.6169 67.1374 100.538H67.5831C67.5831 99.6765 67.7553 98.9487 68.09 98.3464L67.7003 98.1299ZM67.1374 100.538C67.1374 101.46 67.3219 102.281 67.6979 102.996L68.0924 102.788C67.7552 102.147 67.5831 101.399 67.5831 100.538H67.1374ZM67.7013 103.002C68.0926 103.691 68.5997 104.228 69.2239 104.607L69.4549 104.226C68.9023 103.891 68.4466 103.412 68.089 102.782L67.7013 103.002ZM69.2264 104.608C69.8655 104.984 70.5462 105.174 71.265 105.174V104.728C70.6288 104.728 70.0257 104.561 69.4524 104.224L69.2264 104.608ZM71.265 105.174C71.9984 105.174 72.6866 104.995 73.3261 104.637L73.1087 104.248C72.5357 104.569 71.9224 104.728 71.265 104.728V105.174ZM73.3304 104.635C73.9724 104.257 74.4814 103.728 74.8564 103.053L74.4668 102.837C74.1286 103.446 73.6748 103.915 73.1044 104.251L73.3304 104.635ZM74.8577 103.051C75.2352 102.353 75.4194 101.53 75.4194 100.592H74.9736C74.9736 101.472 74.8012 102.218 74.4656 102.839L74.8577 103.051ZM94.419 101.715V101.938H94.6078L94.6388 101.752L94.419 101.715ZM83.5873 101.715V101.492H83.3451L83.3652 101.733L83.5873 101.715ZM84.7106 104.229L84.5598 104.393L84.5598 104.393L84.7106 104.229ZM90.113 103.346V103.124H89.9744L89.9131 103.248L90.113 103.346ZM94.1515 103.346L94.365 103.41L94.4511 103.124H94.1515V103.346ZM91.691 106.877L91.8247 107.055L91.8264 107.054L91.691 106.877ZM83.3733 107.305L83.2627 107.498L83.2664 107.5L83.3733 107.305ZM80.7256 104.603L80.5293 104.709L80.5306 104.711L80.7256 104.603ZM80.7256 96.5532L80.5294 96.4475L80.5294 96.4475L80.7256 96.5532ZM83.3466 93.8787L83.4548 94.0735L83.4548 94.0735L83.3466 93.8787ZM90.9956 93.852L90.8885 94.0474L90.8898 94.0481L90.9956 93.852ZM93.5899 96.4462L93.3937 96.5521L93.3958 96.5558L93.5899 96.4462ZM90.6479 99.2009V99.4238H90.875L90.8708 99.1968L90.6479 99.2009ZM89.6049 96.9009L89.4587 97.0692L89.4613 97.0714L89.6049 96.9009ZM84.7641 96.8741L84.9118 97.041L84.9121 97.0407L84.7641 96.8741ZM83.614 99.2009L83.3934 99.1694L83.3571 99.4238H83.614V99.2009ZM94.3031 100.271C94.3031 100.796 94.268 101.265 94.1991 101.678L94.6388 101.752C94.7125 101.309 94.7488 100.815 94.7488 100.271H94.3031ZM94.419 101.492H83.5873V101.938H94.419V101.492ZM83.3652 101.733C83.458 102.847 83.851 103.742 84.5598 104.393L84.8614 104.065C84.2508 103.504 83.8949 102.722 83.8094 101.696L83.3652 101.733ZM84.5598 104.393C85.2638 105.04 86.1302 105.361 87.1444 105.361V104.915C86.2329 104.915 85.4767 104.63 84.8614 104.065L84.5598 104.393ZM87.1444 105.361C87.872 105.361 88.5088 105.205 89.0448 104.881C89.5813 104.557 90.0029 104.074 90.313 103.445L89.9131 103.248C89.6348 103.813 89.2674 104.226 88.8144 104.5C88.3609 104.773 87.8074 104.915 87.1444 104.915V105.361ZM90.113 103.569H94.1515V103.124H90.113V103.569ZM93.938 103.282C93.524 104.663 92.7318 105.8 91.5556 106.7L91.8264 107.054C93.0751 106.099 93.9232 104.883 94.365 103.41L93.938 103.282ZM91.5573 106.698C90.3895 107.574 88.9498 108.018 87.2246 108.018V108.464C89.0297 108.464 90.5676 107.998 91.8247 107.055L91.5573 106.698ZM87.2246 108.018C85.8319 108.018 84.5855 107.714 83.4803 107.109L83.2664 107.5C84.4434 108.144 85.7645 108.464 87.2246 108.464V108.018ZM83.4839 107.111C82.3969 106.49 81.5432 105.62 80.9206 104.495L80.5306 104.711C81.1918 105.905 82.1032 106.836 83.2628 107.498L83.4839 107.111ZM80.9218 104.498C80.3178 103.376 80.0124 102.076 80.0124 100.592H79.5667C79.5667 102.138 79.8853 103.513 80.5294 104.709L80.9218 104.498ZM80.0124 100.592C80.0124 99.0891 80.318 97.7803 80.9218 96.6589L80.5294 96.4475C79.8851 97.6439 79.5667 99.0275 79.5667 100.592H80.0124ZM80.9218 96.6589C81.5262 95.5365 82.3697 94.6764 83.4548 94.0735L83.2384 93.6839C82.0769 94.3292 81.1731 95.252 80.5294 96.4475L80.9218 96.6589ZM83.4548 94.0735C84.5407 93.4703 85.7951 93.1655 87.2246 93.1655V92.7198C85.73 92.7198 84.3991 93.039 83.2384 93.6839L83.4548 94.0735ZM87.2246 93.1655C88.6002 93.1655 89.8196 93.4612 90.8885 94.0474L91.1028 93.6565C89.9608 93.0303 88.6662 92.7198 87.2246 92.7198V93.1655ZM90.8898 94.0481C91.9748 94.6337 92.8082 95.467 93.3937 96.5521L93.786 96.3404C93.1591 95.1788 92.263 94.2827 91.1015 93.6558L90.8898 94.0481ZM93.3958 96.5558C93.9985 97.6234 94.3031 98.8595 94.3031 100.271H94.7488C94.7488 98.7935 94.4294 97.4799 93.784 96.3367L93.3958 96.5558ZM90.8708 99.1968C90.8519 98.176 90.4798 97.3463 89.7485 96.7304L89.4613 97.0714C90.085 97.5966 90.4083 98.3002 90.4251 99.2051L90.8708 99.1968ZM89.751 96.7326C89.0291 96.1056 88.1466 95.7954 87.1176 95.7954V96.2412C88.0499 96.2412 88.8256 96.5193 89.4588 97.0692L89.751 96.7326ZM87.1176 95.7954C86.1406 95.7954 85.3021 96.0977 84.616 96.7076L84.9121 97.0407C85.5098 96.5094 86.2403 96.2412 87.1176 96.2412V95.7954ZM84.6163 96.7073C83.9448 97.302 83.5419 98.1301 83.3934 99.1694L83.8347 99.2325C83.9715 98.2749 84.3352 97.5517 84.9118 97.041L84.6163 96.7073ZM83.614 99.4238H90.6479V98.9781H83.614V99.4238ZM115.854 108V108.223H116.077V108H115.854ZM112.11 108L111.924 108.123L111.99 108.223H112.11V108ZM103.632 95.1892L103.818 95.0662L103.409 94.4486V95.1892H103.632ZM103.632 108V108.223H103.855V108H103.632ZM99.8875 108H99.6646V108.223H99.8875V108ZM99.8875 89.3053V89.0825H99.6646V89.3053H99.8875ZM103.632 89.3053L103.818 89.1825L103.752 89.0825H103.632V89.3053ZM112.11 102.143L111.924 102.266L112.333 102.885V102.143H112.11ZM112.11 89.3053V89.0825H111.887V89.3053H112.11ZM115.854 89.3053H116.077V89.0825H115.854V89.3053ZM115.854 107.777H112.11V108.223H115.854V107.777ZM112.296 107.877L103.818 95.0662L103.446 95.3122L111.924 108.123L112.296 107.877ZM103.409 95.1892V108H103.855V95.1892H103.409ZM103.632 107.777H99.8875V108.223H103.632V107.777ZM100.11 108V89.3053H99.6646V108H100.11ZM99.8875 89.5282H103.632V89.0825H99.8875V89.5282ZM103.446 89.4282L111.924 102.266L112.296 102.02L103.818 89.1825L103.446 89.4282ZM112.333 102.143V89.3053H111.887V102.143H112.333ZM112.11 89.5282H115.854V89.0825H112.11V89.5282ZM115.631 89.3053V108H116.077V89.3053H115.631ZM120.41 107.305L120.301 107.499L120.303 107.5L120.41 107.305ZM117.709 104.603L117.514 104.711L117.515 104.714L117.709 104.603ZM117.736 96.5799L117.543 96.4675L117.542 96.4697L117.736 96.5799ZM120.49 93.9055L120.596 94.1017L120.598 94.1004L120.49 93.9055ZM128.246 93.9055L128.138 94.1004L128.141 94.1017L128.246 93.9055ZM130.974 96.5799L130.781 96.6902L130.782 96.6924L130.974 96.5799ZM130.948 104.603L130.757 104.489L130.755 104.491L130.948 104.603ZM128.166 107.305L128.272 107.501L128.273 107.5L128.166 107.305ZM126.16 104.496L126.267 104.692L126.269 104.691L126.16 104.496ZM127.605 102.999L127.801 103.105L127.801 103.105L127.605 102.999ZM127.016 97.3555L126.855 97.5094L126.859 97.5131L127.016 97.3555ZM121.614 97.3555L121.452 97.2017L121.452 97.2018L121.614 97.3555ZM121.587 103.855L121.422 104.004L121.426 104.008L121.587 103.855ZM124.261 108.018C122.869 108.018 121.622 107.714 120.517 107.109L120.303 107.5C121.48 108.144 122.801 108.464 124.261 108.464V108.018ZM120.519 107.11C119.414 106.489 118.543 105.618 117.903 104.493L117.515 104.714C118.195 105.907 119.124 106.837 120.301 107.499L120.519 107.11ZM117.904 104.495C117.283 103.374 116.969 102.075 116.969 100.592H116.523C116.523 102.139 116.851 103.515 117.514 104.711L117.904 104.495ZM116.969 100.592C116.969 99.1094 117.291 97.8112 117.929 96.6902L117.542 96.4697C116.861 97.6666 116.523 99.0428 116.523 100.592H116.969ZM117.928 96.6924C118.585 95.5681 119.474 94.7059 120.596 94.1017L120.385 93.7092C119.189 94.3531 118.241 95.2739 117.543 96.4675L117.928 96.6924ZM120.598 94.1004C121.722 93.4782 122.977 93.1655 124.368 93.1655V92.7198C122.907 92.7198 121.577 93.0489 120.382 93.7105L120.598 94.1004ZM124.368 93.1655C125.76 93.1655 127.015 93.4782 128.138 94.1004L128.354 93.7105C127.16 93.0489 125.83 92.7198 124.368 92.7198V93.1655ZM128.141 94.1017C129.262 94.7056 130.141 95.5671 130.781 96.6902L131.168 96.4697C130.488 95.2749 129.548 94.3534 128.352 93.7092L128.141 94.1017ZM130.782 96.6924C131.437 97.813 131.768 99.1105 131.768 100.592H132.214C132.214 99.0418 131.867 97.6648 131.167 96.4675L130.782 96.6924ZM131.768 100.592C131.768 102.072 131.429 103.368 130.757 104.489L131.139 104.718C131.857 103.52 132.214 102.143 132.214 100.592H131.768ZM130.755 104.491C130.098 105.615 129.201 106.487 128.059 107.109L128.273 107.5C129.485 106.839 130.442 105.91 131.14 104.716L130.755 104.491ZM128.061 107.108C126.937 107.713 125.672 108.018 124.261 108.018V108.464C125.739 108.464 127.077 108.144 128.272 107.501L128.061 107.108ZM124.261 105.201C124.976 105.201 125.646 105.031 126.267 104.692L126.054 104.301C125.498 104.604 124.902 104.755 124.261 104.755V105.201ZM126.269 104.691C126.915 104.33 127.426 103.799 127.801 103.105L127.408 102.893C127.07 103.518 126.618 103.985 126.052 104.302L126.269 104.691ZM127.801 103.105C128.179 102.405 128.362 101.564 128.362 100.592H127.917C127.917 101.509 127.743 102.273 127.408 102.893L127.801 103.105ZM128.362 100.592C128.362 99.1442 127.977 98.001 127.174 97.1979L126.859 97.5131C127.553 98.2078 127.917 99.222 127.917 100.592H128.362ZM127.177 97.2017C126.404 96.3905 125.445 95.9826 124.315 95.9826V96.4284C125.324 96.4284 126.166 96.7873 126.855 97.5093L127.177 97.2017ZM124.315 95.9826C123.185 95.9826 122.226 96.3905 121.452 97.2017L121.775 97.5093C122.463 96.7873 123.305 96.4284 124.315 96.4284V95.9826ZM121.452 97.2018C120.687 98.0052 120.321 99.147 120.321 100.592H120.767C120.767 99.2193 121.114 98.2036 121.775 97.5092L121.452 97.2018ZM120.321 100.592C120.321 102.035 120.678 103.184 121.422 104.004L121.752 103.705C121.105 102.992 120.767 101.965 120.767 100.592H120.321ZM121.426 104.008C122.182 104.803 123.133 105.201 124.261 105.201V104.755C123.25 104.755 122.418 104.404 121.748 103.701L121.426 104.008ZM137.225 96.259V96.0361H137.002V96.259H137.225ZM137.572 104.523L137.415 104.681L137.421 104.687L137.427 104.692L137.572 104.523ZM140.541 104.844H140.764V104.621H140.541V104.844ZM140.541 108V108.223H140.764V108H140.541ZM133.454 96.259H133.676V96.0361H133.454V96.259ZM131.688 96.259H131.465V96.4819H131.688V96.259ZM131.688 93.1833V92.9605H131.465V93.1833H131.688ZM133.454 93.1833V93.4062H133.676V93.1833H133.454ZM133.454 89.5193V89.2964H133.231V89.5193H133.454ZM137.225 89.5193H137.447V89.2964H137.225V89.5193ZM137.225 93.1833H137.002V93.4062H137.225V93.1833ZM140.541 93.1833H140.764V92.9605H140.541V93.1833ZM140.541 96.259V96.4819H140.764V96.259H140.541ZM137.002 96.259V103.427H137.447V96.259H137.002ZM137.002 103.427C137.002 103.955 137.124 104.39 137.415 104.681L137.73 104.366C137.557 104.193 137.447 103.897 137.447 103.427H137.002ZM137.427 104.692C137.738 104.959 138.214 105.067 138.802 105.067V104.621C138.25 104.621 137.906 104.516 137.717 104.354L137.427 104.692ZM138.802 105.067H140.541V104.621H138.802V105.067ZM140.318 104.844V108H140.764V104.844H140.318ZM140.541 107.777H138.187V108.223H140.541V107.777ZM138.187 107.777C136.642 107.777 135.525 107.402 134.792 106.69C134.061 105.98 133.676 104.897 133.676 103.4H133.231C133.231 104.969 133.635 106.187 134.482 107.01C135.327 107.832 136.577 108.223 138.187 108.223V107.777ZM133.676 103.4V96.259H133.231V103.4H133.676ZM133.454 96.0361H131.688V96.4819H133.454V96.0361ZM131.911 96.259V93.1833H131.465V96.259H131.911ZM131.688 93.4062H133.454V92.9605H131.688V93.4062ZM133.676 93.1833V89.5193H133.231V93.1833H133.676ZM133.454 89.7422H137.225V89.2964H133.454V89.7422ZM137.002 89.5193V93.1833H137.447V89.5193H137.002ZM137.225 93.4062H140.541V92.9605H137.225V93.4062ZM140.318 93.1833V96.259H140.764V93.1833H140.318ZM140.541 96.0361H137.225V96.4819H140.541V96.0361ZM157.39 89.3321H157.612V89.1092H157.39V89.3321ZM157.39 92.3543V92.5771H157.612V92.3543H157.39ZM149.607 92.3543V92.1314H149.384V92.3543H149.607ZM149.607 97.1416H149.384V97.3645H149.607V97.1416ZM155.571 97.1416H155.794V96.9187H155.571V97.1416ZM155.571 100.11V100.333H155.794V100.11H155.571ZM149.607 100.11V99.8874H149.384V100.11H149.607ZM149.607 108V108.223H149.83V108H149.607ZM145.863 108H145.64V108.223H145.863V108ZM145.863 89.3321V89.1092H145.64V89.3321H145.863ZM157.167 89.3321V92.3543H157.612V89.3321H157.167ZM157.39 92.1314H149.607V92.5771H157.39V92.1314ZM149.384 92.3543V97.1416H149.83V92.3543H149.384ZM149.607 97.3645H155.571V96.9187H149.607V97.3645ZM155.348 97.1416V100.11H155.794V97.1416H155.348ZM155.571 99.8874H149.607V100.333H155.571V99.8874ZM149.384 100.11V108H149.83V100.11H149.384ZM149.607 107.777H145.863V108.223H149.607V107.777ZM146.085 108V89.3321H145.64V108H146.085ZM145.863 89.555H157.39V89.1092H145.863V89.555ZM160.9 107.305L160.791 107.499L160.793 107.5L160.9 107.305ZM158.199 104.603L158.004 104.711L158.006 104.714L158.199 104.603ZM158.226 96.5799L158.034 96.4675L158.032 96.4697L158.226 96.5799ZM160.981 93.9055L161.086 94.1017L161.089 94.1004L160.981 93.9055ZM168.737 93.9055L168.629 94.1004L168.631 94.1017L168.737 93.9055ZM171.465 96.5799L171.271 96.6902L171.272 96.6924L171.465 96.5799ZM171.438 104.603L171.247 104.489L171.246 104.491L171.438 104.603ZM168.656 107.305L168.762 107.501L168.763 107.5L168.656 107.305ZM166.651 104.496L166.757 104.692L166.759 104.691L166.651 104.496ZM168.095 102.999L168.291 103.105L168.291 103.105L168.095 102.999ZM167.506 97.3555L167.345 97.5094L167.349 97.5131L167.506 97.3555ZM162.104 97.3555L161.943 97.2017L161.943 97.2018L162.104 97.3555ZM162.077 103.855L161.912 104.004L161.916 104.008L162.077 103.855ZM164.752 108.018C163.359 108.018 162.113 107.714 161.007 107.109L160.793 107.5C161.971 108.144 163.292 108.464 164.752 108.464V108.018ZM161.01 107.11C159.905 106.489 159.033 105.618 158.393 104.493L158.006 104.714C158.685 105.907 159.614 106.837 160.791 107.499L161.01 107.11ZM158.394 104.495C157.773 103.374 157.459 102.075 157.459 100.592H157.014C157.014 102.139 157.342 103.515 158.004 104.711L158.394 104.495ZM157.459 100.592C157.459 99.1094 157.782 97.8112 158.42 96.6902L158.032 96.4697C157.351 97.6666 157.014 99.0428 157.014 100.592H157.459ZM158.418 96.6924C159.076 95.5681 159.964 94.7059 161.086 94.1017L160.875 93.7092C159.679 94.3531 158.731 95.2739 158.034 96.4675L158.418 96.6924ZM161.089 94.1004C162.212 93.4782 163.467 93.1655 164.859 93.1655V92.7198C163.397 92.7198 162.067 93.0489 160.873 93.7105L161.089 94.1004ZM164.859 93.1655C166.25 93.1655 167.505 93.4782 168.629 94.1004L168.845 93.7105C167.65 93.0489 166.32 92.7198 164.859 92.7198V93.1655ZM168.631 94.1017C169.753 94.7056 170.632 95.5671 171.271 96.6902L171.658 96.4697C170.978 95.2749 170.039 94.3534 168.842 93.7092L168.631 94.1017ZM171.272 96.6924C171.927 97.813 172.258 99.1105 172.258 100.592H172.704C172.704 99.0418 172.357 97.6648 171.657 96.4675L171.272 96.6924ZM172.258 100.592C172.258 102.072 171.919 103.368 171.247 104.489L171.629 104.718C172.348 103.52 172.704 102.143 172.704 100.592H172.258ZM171.246 104.491C170.588 105.615 169.691 106.487 168.55 107.109L168.763 107.5C169.976 106.839 170.932 105.91 171.63 104.716L171.246 104.491ZM168.551 107.108C167.427 107.713 166.163 108.018 164.752 108.018V108.464C166.229 108.464 167.568 108.144 168.762 107.501L168.551 107.108ZM164.752 105.201C165.466 105.201 166.136 105.031 166.757 104.692L166.544 104.301C165.989 104.604 165.392 104.755 164.752 104.755V105.201ZM166.759 104.691C167.405 104.33 167.916 103.799 168.291 103.105L167.899 102.893C167.561 103.518 167.108 103.985 166.542 104.302L166.759 104.691ZM168.291 103.105C168.669 102.405 168.853 101.564 168.853 100.592H168.407C168.407 101.509 168.234 102.273 167.899 102.893L168.291 103.105ZM168.853 100.592C168.853 99.1442 168.467 98.001 167.664 97.1979L167.349 97.5131C168.044 98.2078 168.407 99.222 168.407 100.592H168.853ZM167.668 97.2017C166.894 96.3905 165.935 95.9826 164.805 95.9826V96.4284C165.815 96.4284 166.657 96.7873 167.345 97.5093L167.668 97.2017ZM164.805 95.9826C163.675 95.9826 162.716 96.3905 161.943 97.2017L162.265 97.5093C162.954 96.7873 163.796 96.4284 164.805 96.4284V95.9826ZM161.943 97.2018C161.177 98.0052 160.811 99.147 160.811 100.592H161.257C161.257 99.2193 161.604 98.2036 162.265 97.5092L161.943 97.2018ZM160.811 100.592C160.811 102.035 161.168 103.184 161.912 104.004L162.242 103.705C161.596 102.992 161.257 101.965 161.257 100.592H160.811ZM161.916 104.008C162.673 104.803 163.623 105.201 164.752 105.201V104.755C163.741 104.755 162.908 104.404 162.239 103.701L161.916 104.008ZM187.343 93.1833H187.566V92.9605H187.343V93.1833ZM187.343 108V108.223H187.566V108H187.343ZM183.572 108H183.349V108.223H183.572V108ZM183.572 106.128H183.795V105.459L183.394 105.994L183.572 106.128ZM181.673 107.652L181.767 107.854L181.769 107.853L181.673 107.652ZM176.083 107.465L175.974 107.66L175.977 107.661L176.083 107.465ZM173.971 105.299L173.773 105.401L173.775 105.406L173.971 105.299ZM173.222 93.1833V92.9605H172.999V93.1833H173.222ZM176.966 93.1833H177.189V92.9605H176.966V93.1833ZM177.849 104.069L177.684 104.219L177.686 104.221L177.849 104.069ZM182.689 104.069L182.852 104.221L182.854 104.219L182.689 104.069ZM183.572 93.1833V92.9605H183.349V93.1833H183.572ZM187.12 93.1833V108H187.566V93.1833H187.12ZM187.343 107.777H183.572V108.223H187.343V107.777ZM183.795 108V106.128H183.349V108H183.795ZM183.394 105.994C182.936 106.605 182.332 107.091 181.577 107.451L181.769 107.853C182.583 107.465 183.245 106.935 183.75 106.262L183.394 105.994ZM181.579 107.45C180.844 107.792 180.038 107.964 179.159 107.964V108.41C180.098 108.41 180.969 108.226 181.767 107.854L181.579 107.45ZM179.159 107.964C178.032 107.964 177.044 107.73 176.189 107.269L175.977 107.661C176.906 108.163 177.968 108.41 179.159 108.41V107.964ZM176.192 107.271C175.339 106.793 174.664 106.102 174.166 105.192L173.775 105.406C174.311 106.385 175.044 107.139 175.974 107.66L176.192 107.271ZM174.168 105.196C173.689 104.271 173.445 103.167 173.445 101.875H172.999C172.999 103.223 173.254 104.401 173.773 105.401L174.168 105.196ZM173.445 101.875V93.1833H172.999V101.875H173.445ZM173.222 93.4062H176.966V92.9605H173.222V93.4062ZM176.743 93.1833V101.341H177.189V93.1833H176.743ZM176.743 101.341C176.743 102.553 177.047 103.524 177.684 104.219L178.013 103.918C177.474 103.33 177.189 102.481 177.189 101.341H176.743ZM177.686 104.221C178.325 104.898 179.19 105.227 180.256 105.227V104.782C179.288 104.782 178.549 104.487 178.011 103.916L177.686 104.221ZM180.256 105.227C181.337 105.227 182.212 104.899 182.852 104.221L182.527 103.916C181.989 104.486 181.242 104.782 180.256 104.782V105.227ZM182.854 104.219C183.491 103.524 183.795 102.553 183.795 101.341H183.349C183.349 102.481 183.064 103.33 182.525 103.918L182.854 104.219ZM183.795 101.341V93.1833H183.349V101.341H183.795ZM183.572 93.4062H187.343V92.9605H183.572V93.4062ZM201.655 94.6543L201.495 94.8093L201.496 94.8106L201.655 94.6543ZM203.286 108V108.223H203.509V108H203.286ZM199.542 108H199.319V108.223H199.542V108ZM198.66 97.1148L198.495 97.2655L198.497 97.2677L198.66 97.1148ZM193.792 97.1148L193.63 96.9618L193.63 96.9619L193.792 97.1148ZM192.909 108V108.223H193.132V108H192.909ZM189.165 108H188.942V108.223H189.165V108ZM189.165 93.1833V92.9605H188.942V93.1833H189.165ZM192.909 93.1833H193.132V92.9605H192.909V93.1833ZM192.909 95.0287H192.687V95.6783L193.085 95.1656L192.909 95.0287ZM194.808 93.531L194.902 93.7331L194.904 93.7322L194.808 93.531ZM197.376 93.1923C199.089 93.1923 200.455 93.7352 201.495 94.8093L201.815 94.4993C200.68 93.3269 199.193 92.7465 197.376 92.7465V93.1923ZM201.496 94.8106C202.532 95.8634 203.064 97.3519 203.064 99.3079H203.509C203.509 97.27 202.953 95.6562 201.814 94.498L201.496 94.8106ZM203.064 99.3079V108H203.509V99.3079H203.064ZM203.286 107.777H199.542V108.223H203.286V107.777ZM199.765 108V99.8161H199.319V108H199.765ZM199.765 99.8161C199.765 98.6039 199.462 97.6407 198.822 96.9619L198.497 97.2677C199.034 97.8371 199.319 98.6747 199.319 99.8161H199.765ZM198.824 96.9642C198.186 96.2685 197.32 95.9291 196.253 95.9291V96.3749C197.218 96.3749 197.956 96.6774 198.495 97.2654L198.824 96.9642ZM196.253 95.9291C195.169 95.9291 194.286 96.2677 193.63 96.9618L193.954 97.2679C194.511 96.6783 195.268 96.3749 196.253 96.3749V95.9291ZM193.63 96.9619C192.99 97.6407 192.687 98.6039 192.687 99.8161H193.132C193.132 98.6747 193.417 97.8371 193.954 97.2677L193.63 96.9619ZM192.687 99.8161V108H193.132V99.8161H192.687ZM192.909 107.777H189.165V108.223H192.909V107.777ZM189.388 108V93.1833H188.942V108H189.388ZM189.165 93.4062H192.909V92.9605H189.165V93.4062ZM192.687 93.1833V95.0287H193.132V93.1833H192.687ZM193.085 95.1656C193.562 94.5528 194.166 94.0754 194.902 93.7331L194.714 93.3289C193.917 93.6999 193.255 94.221 192.734 94.8919L193.085 95.1656ZM194.904 93.7322C195.657 93.373 196.48 93.1923 197.376 93.1923V92.7465C196.418 92.7465 195.529 92.9402 194.712 93.3299L194.904 93.7322ZM204.895 96.5532L204.697 96.4499L204.696 96.4523L204.895 96.5532ZM207.355 93.8787L207.47 94.0695L207.47 94.0695L207.355 93.8787ZM213.56 93.5845L213.462 93.7847L213.465 93.7863L213.56 93.5845ZM215.646 95.2427L215.467 95.3757L215.869 95.9159V95.2427H215.646ZM215.646 88.2088V87.9859H215.423V88.2088H215.646ZM219.444 88.2088H219.667V87.9859H219.444V88.2088ZM219.444 108V108.223H219.667V108H219.444ZM215.646 108H215.423V108.223H215.646V108ZM215.646 105.807H215.869V105.039L215.458 105.688L215.646 105.807ZM213.694 107.572L213.589 107.375L213.589 107.375L213.694 107.572ZM207.355 107.278L207.473 107.089L207.473 107.089L207.355 107.278ZM204.895 104.577L204.695 104.676L204.697 104.68L204.895 104.577ZM215.138 98.2649L214.942 98.3709L214.943 98.3731L215.138 98.2649ZM213.694 96.7672L213.581 96.9593L213.585 96.9617L213.694 96.7672ZM209.816 96.7404L209.705 96.5473L209.705 96.5473L209.816 96.7404ZM208.372 98.2381L208.178 98.1281L208.177 98.1299L208.372 98.2381ZM208.372 102.892L208.174 102.996L208.178 103.002L208.372 102.892ZM209.816 104.416L209.7 104.607L209.703 104.608L209.816 104.416ZM213.694 104.443L213.803 104.638L213.807 104.635L213.694 104.443ZM215.138 102.945L215.333 103.053L215.334 103.051L215.138 102.945ZM204.235 100.538C204.235 99.0702 204.523 97.7773 205.093 96.6541L204.696 96.4523C204.089 97.647 203.789 99.0108 203.789 100.538H204.235ZM205.092 96.6565C205.681 95.5306 206.474 94.6708 207.47 94.0695L207.24 93.6879C206.168 94.3348 205.321 95.2579 204.697 96.4499L205.092 96.6565ZM207.47 94.0695C208.468 93.4675 209.578 93.1655 210.805 93.1655V92.7198C209.501 92.7198 208.311 93.0418 207.24 93.6879L207.47 94.0695ZM210.805 93.1655C211.734 93.1655 212.619 93.3715 213.462 93.7847L213.658 93.3844C212.754 92.9417 211.802 92.7198 210.805 92.7198V93.1655ZM213.465 93.7863C214.31 94.1825 214.975 94.7131 215.467 95.3757L215.825 95.1097C215.284 94.3816 214.558 93.8067 213.655 93.3828L213.465 93.7863ZM215.869 95.2427V88.2088H215.423V95.2427H215.869ZM215.646 88.4317H219.444V87.9859H215.646V88.4317ZM219.221 88.2088V108H219.667V88.2088H219.221ZM219.444 107.777H215.646V108.223H219.444V107.777ZM215.869 108V105.807H215.423V108H215.869ZM215.458 105.688C215.017 106.383 214.396 106.946 213.589 107.375L213.798 107.769C214.667 107.307 215.348 106.693 215.834 105.926L215.458 105.688ZM213.589 107.375C212.788 107.801 211.854 108.018 210.779 108.018V108.464C211.914 108.464 212.923 108.234 213.798 107.769L213.589 107.375ZM210.779 108.018C209.571 108.018 208.471 107.708 207.473 107.089L207.238 107.467C208.308 108.132 209.49 108.464 210.779 108.464V108.018ZM207.473 107.089C206.475 106.469 205.681 105.6 205.092 104.473L204.697 104.68C205.32 105.871 206.167 106.803 207.238 107.467L207.473 107.089ZM205.094 104.477C204.523 103.336 204.235 102.024 204.235 100.538H203.789C203.789 102.083 204.089 103.464 204.695 104.676L205.094 104.477ZM215.896 100.592C215.896 99.6534 215.712 98.8386 215.333 98.1566L214.943 98.3731C215.277 98.9749 215.45 99.7113 215.45 100.592H215.896ZM215.334 98.1589C214.959 97.4651 214.449 96.9337 213.802 96.5726L213.585 96.9617C214.151 97.2782 214.604 97.7453 214.942 98.3708L215.334 98.1589ZM213.807 96.5751C213.167 96.1985 212.477 96.0094 211.741 96.0094V96.4551C212.397 96.4551 213.008 96.6226 213.581 96.9593L213.807 96.5751ZM211.741 96.0094C211.008 96.0094 210.328 96.1885 209.705 96.5473L209.927 96.9336C210.481 96.6148 211.084 96.4551 211.741 96.4551V96.0094ZM209.705 96.5473C209.078 96.9081 208.569 97.438 208.178 98.1281L208.565 98.3481C208.923 97.7189 209.377 97.2502 209.927 96.9336L209.705 96.5473ZM208.177 98.1299C207.798 98.8113 207.614 99.6169 207.614 100.538H208.06C208.06 99.6765 208.232 98.9487 208.566 98.3464L208.177 98.1299ZM207.614 100.538C207.614 101.46 207.798 102.281 208.174 102.996L208.569 102.788C208.232 102.147 208.06 101.399 208.06 100.538H207.614ZM208.178 103.002C208.569 103.691 209.076 104.228 209.7 104.607L209.931 104.226C209.379 103.891 208.923 103.412 208.565 102.782L208.178 103.002ZM209.703 104.608C210.342 104.984 211.023 105.174 211.741 105.174V104.728C211.105 104.728 210.502 104.561 209.929 104.224L209.703 104.608ZM211.741 105.174C212.475 105.174 213.163 104.995 213.802 104.637L213.585 104.248C213.012 104.569 212.399 104.728 211.741 104.728V105.174ZM213.807 104.635C214.449 104.257 214.958 103.728 215.333 103.053L214.943 102.837C214.605 103.446 214.151 103.915 213.581 104.251L213.807 104.635ZM215.334 103.051C215.712 102.353 215.896 101.53 215.896 100.592H215.45C215.45 101.472 215.278 102.218 214.942 102.839L215.334 103.051Z" fill="white" mask="url(#path-4-outside-2_363_70)"/>
</g>
<defs>
<filter id="filter0_d_363_70" x="2.02411" y="0.769531" width="231.741" height="122.531" filterUnits="userSpaceOnUse" color-interpolation-filters="sRGB">
<feFlood flood-opacity="0" result="BackgroundImageFix"/>
<feColorMatrix in="SourceAlpha" type="matrix" values="0 0 0 0 0 0 0 0 0 0 0 0 0 0 0 0 0 0 127 0" result="hardAlpha"/>
<feOffset dy="4"/>
<feGaussianBlur stdDeviation="2"/>
<feComposite in2="hardAlpha" operator="out"/>
<feColorMatrix type="matrix" values="0 0 0 0 0 0 0 0 0 0 0 0 0 0 0 0 0 0 0.25 0"/>
<feBlend mode="normal" in2="BackgroundImageFix" result="effect1_dropShadow_363_70"/>
<feBlend mode="normal" in="SourceGraphic" in2="effect1_dropShadow_363_70" result="shape"/>
</filter>
<filter id="filter1_b_363_70" x="1.02411" y="-4.23047" width="233.741" height="105.23" filterUnits="userSpaceOnUse" color-interpolation-filters="sRGB">
<feFlood flood-opacity="0" result="BackgroundImageFix"/>
<feGaussianBlur in="BackgroundImageFix" stdDeviation="2.5"/>
<feComposite in2="SourceAlpha" operator="in" result="effect1_backgroundBlur_363_70"/>
<feBlend mode="normal" in="SourceGraphic" in2="effect1_backgroundBlur_363_70" result="shape"/>
</filter>
</defs>
</svg>
