<svg width="161" height="73" viewBox="0 0 161 73" fill="none" xmlns="http://www.w3.org/2000/svg">
<g filter="url(#filter0_d_310_34)">
<mask id="path-1-outside-1_310_34" maskUnits="userSpaceOnUse" x="3" y="4" width="155" height="51" fill="black">
<rect fill="white" x="3" y="4" width="155" height="51"/>
<path d="M26.6198 35.6792H13.4079L11.2218 42H4.23564L16.1644 8.7802H23.9109L35.8396 42H28.8059L26.6198 35.6792ZM24.8139 30.3564L20.0139 16.4792L15.2139 30.3564H24.8139ZM43.6251 19.7584C44.4806 18.3644 45.5895 17.2713 46.9519 16.4792C48.3459 15.6871 49.9301 15.2911 51.7043 15.2911V22.2772H49.9459C47.8548 22.2772 46.2707 22.7683 45.1934 23.7505C44.1479 24.7327 43.6251 26.4436 43.6251 28.8832V42H36.9717V15.6713H43.6251V19.7584ZM60.6056 21.1366V33.8733C60.6056 34.7604 60.8115 35.4099 61.2234 35.8218C61.667 36.202 62.3957 36.3921 63.4095 36.3921H66.4986V42H62.3165C56.7085 42 53.9046 39.2752 53.9046 33.8257V21.1366H50.7679V15.6713H53.9046V9.1604H60.6056V15.6713H66.4986V21.1366H60.6056ZM71.3317 12.5347C70.1594 12.5347 69.1772 12.1703 68.3851 11.4416C67.6247 10.6812 67.2446 9.74653 67.2446 8.63762C67.2446 7.52871 67.6247 6.6099 68.3851 5.88119C69.1772 5.12079 70.1594 4.74059 71.3317 4.74059C72.504 4.74059 73.4703 5.12079 74.2307 5.88119C75.0228 6.6099 75.4188 7.52871 75.4188 8.63762C75.4188 9.74653 75.0228 10.6812 74.2307 11.4416C73.4703 12.1703 72.504 12.5347 71.3317 12.5347ZM74.6109 15.6713V42H67.9574V15.6713H74.6109ZM87.933 42.4277C85.7786 42.4277 83.8459 42.0475 82.135 41.2871C80.4241 40.495 79.0618 39.4337 78.0479 38.103C77.0657 36.7723 76.5271 35.299 76.432 33.6832H83.133C83.2598 34.697 83.7509 35.5366 84.6063 36.202C85.4934 36.8673 86.5865 37.2 87.8855 37.2C89.1528 37.2 90.135 36.9465 90.832 36.4396C91.5608 35.9327 91.9251 35.2832 91.9251 34.4911C91.9251 33.6356 91.4816 33.002 90.5944 32.5901C89.739 32.1465 88.3608 31.6713 86.4598 31.1644C84.4954 30.6891 82.8796 30.198 81.6122 29.6911C80.3766 29.1842 79.2994 28.4079 78.3806 27.3624C77.4934 26.3168 77.0499 24.9069 77.0499 23.1327C77.0499 21.6752 77.4618 20.3446 78.2855 19.1406C79.141 17.9366 80.3449 16.9861 81.8974 16.2891C83.4816 15.5921 85.335 15.2436 87.4578 15.2436C90.5944 15.2436 93.0974 16.0356 94.9667 17.6198C96.836 19.1723 97.8657 21.2792 98.0558 23.9406H91.6875C91.5924 22.895 91.1489 22.0713 90.3568 21.4693C89.5964 20.8356 88.5667 20.5188 87.2677 20.5188C86.0637 20.5188 85.1291 20.7406 84.4637 21.1842C83.8301 21.6277 83.5132 22.2455 83.5132 23.0376C83.5132 23.9248 83.9568 24.6059 84.8439 25.0812C85.7311 25.5248 87.1093 25.9842 88.9786 26.4594C90.8796 26.9347 92.4479 27.4257 93.6835 27.9327C94.9192 28.4396 95.9806 29.2317 96.8677 30.3089C97.7865 31.3545 98.2618 32.7485 98.2934 34.4911C98.2934 36.0119 97.8657 37.3743 97.0103 38.5782C96.1865 39.7822 94.9825 40.7327 93.3984 41.4297C91.8459 42.095 90.0241 42.4277 87.933 42.4277ZM108.175 21.1366V33.8733C108.175 34.7604 108.381 35.4099 108.793 35.8218C109.236 36.202 109.965 36.3921 110.979 36.3921H114.068V42H109.886C104.278 42 101.474 39.2752 101.474 33.8257V21.1366H98.3373V15.6713H101.474V9.1604H108.175V15.6713H114.068V21.1366H108.175ZM122.18 19.7584C123.036 18.3644 124.145 17.2713 125.507 16.4792C126.901 15.6871 128.485 15.2911 130.259 15.2911V22.2772H128.501C126.41 22.2772 124.826 22.7683 123.749 23.7505C122.703 24.7327 122.18 26.4436 122.18 28.8832V42H115.527V15.6713H122.18V19.7584ZM156.602 15.6713L140.301 54.4515H133.22L138.923 41.3347L128.373 15.6713H135.834L142.63 34.0634L149.521 15.6713H156.602Z"/>
</mask>
<path d="M26.6198 35.6792L26.9941 35.5498L26.9019 35.2832H26.6198V35.6792ZM13.4079 35.6792V35.2832H13.1258L13.0336 35.5498L13.4079 35.6792ZM11.2218 42V42.396H11.5039L11.5961 42.1295L11.2218 42ZM4.23564 42L3.86291 41.8662L3.67263 42.396H4.23564V42ZM16.1644 8.7802V8.38416H15.8858L15.7916 8.64635L16.1644 8.7802ZM23.9109 8.7802L24.2836 8.64635L24.1895 8.38416H23.9109V8.7802ZM35.8396 42V42.396H36.4026L36.2123 41.8662L35.8396 42ZM28.8059 42L28.4317 42.1295L28.5239 42.396H28.8059V42ZM24.8139 30.3564V30.7525H25.3699L25.1881 30.227L24.8139 30.3564ZM20.0139 16.4792L20.3881 16.3497L20.0139 15.2677L19.6396 16.3497L20.0139 16.4792ZM15.2139 30.3564L14.8396 30.227L14.6578 30.7525H15.2139V30.3564ZM26.6198 35.2832H13.4079V36.0752H26.6198V35.2832ZM13.0336 35.5498L10.8475 41.8705L11.5961 42.1295L13.7822 35.8087L13.0336 35.5498ZM11.2218 41.604H4.23564V42.396H11.2218V41.604ZM4.60838 42.1338L16.5371 8.91404L15.7916 8.64635L3.86291 41.8662L4.60838 42.1338ZM16.1644 9.17624H23.9109V8.38416H16.1644V9.17624ZM23.5382 8.91404L35.4669 42.1338L36.2123 41.8662L24.2836 8.64635L23.5382 8.91404ZM35.8396 41.604H28.8059V42.396H35.8396V41.604ZM29.1802 41.8705L26.9941 35.5498L26.2455 35.8087L28.4317 42.1295L29.1802 41.8705ZM25.1881 30.227L20.3881 16.3497L19.6396 16.6087L24.4396 30.4859L25.1881 30.227ZM19.6396 16.3497L14.8396 30.227L15.5881 30.4859L20.3881 16.6087L19.6396 16.3497ZM15.2139 30.7525H24.8139V29.9604H15.2139V30.7525ZM43.6251 19.7584H43.2291V21.161L43.9627 19.9656L43.6251 19.7584ZM46.9519 16.4792L46.7562 16.1349L46.7528 16.1368L46.9519 16.4792ZM51.7043 15.2911H52.1004V14.895H51.7043V15.2911ZM51.7043 22.2772V22.6733H52.1004V22.2772H51.7043ZM45.1934 23.7505L44.9266 23.4578L44.9223 23.4618L45.1934 23.7505ZM43.6251 42V42.396H44.0212V42H43.6251ZM36.9717 42H36.5756V42.396H36.9717V42ZM36.9717 15.6713V15.2752H36.5756V15.6713H36.9717ZM43.6251 15.6713H44.0212V15.2752H43.6251V15.6713ZM43.9627 19.9656C44.7852 18.6251 45.8474 17.5795 47.1509 16.8216L46.7528 16.1368C45.3316 16.9631 44.1759 18.1036 43.2876 19.5513L43.9627 19.9656ZM47.1475 16.8235C48.4757 16.0689 49.9912 15.6871 51.7043 15.6871V14.895C49.869 14.895 48.2161 15.3054 46.7562 16.1349L47.1475 16.8235ZM51.3083 15.2911V22.2772H52.1004V15.2911H51.3083ZM51.7043 21.8812H49.9459V22.6733H51.7043V21.8812ZM49.9459 21.8812C47.7986 21.8812 46.1031 22.3852 44.9266 23.4578L45.4603 24.0432C46.4383 23.1515 47.911 22.6733 49.9459 22.6733V21.8812ZM44.9223 23.4618C43.7563 24.5571 43.2291 26.4067 43.2291 28.8832H44.0212C44.0212 26.4804 44.5395 24.9082 45.4646 24.0391L44.9223 23.4618ZM43.2291 28.8832V42H44.0212V28.8832H43.2291ZM43.6251 41.604H36.9717V42.396H43.6251V41.604ZM37.3677 42V15.6713H36.5756V42H37.3677ZM36.9717 16.0673H43.6251V15.2752H36.9717V16.0673ZM43.2291 15.6713V19.7584H44.0212V15.6713H43.2291ZM60.6056 21.1366V20.7406H60.2095V21.1366H60.6056ZM61.2234 35.8218L60.9433 36.1018L60.9541 36.1126L60.9656 36.1225L61.2234 35.8218ZM66.4986 36.3921H66.8947V35.996H66.4986V36.3921ZM66.4986 42V42.396H66.8947V42H66.4986ZM53.9046 21.1366H54.3006V20.7406H53.9046V21.1366ZM50.7679 21.1366H50.3719V21.5327H50.7679V21.1366ZM50.7679 15.6713V15.2752H50.3719V15.6713H50.7679ZM53.9046 15.6713V16.0673H54.3006V15.6713H53.9046ZM53.9046 9.1604V8.76436H53.5085V9.1604H53.9046ZM60.6056 9.1604H61.0016V8.76436H60.6056V9.1604ZM60.6056 15.6713H60.2095V16.0673H60.6056V15.6713ZM66.4986 15.6713H66.8947V15.2752H66.4986V15.6713ZM66.4986 21.1366V21.5327H66.8947V21.1366H66.4986ZM60.2095 21.1366V33.8733H61.0016V21.1366H60.2095ZM60.2095 33.8733C60.2095 34.8115 60.4262 35.5847 60.9433 36.1018L61.5034 35.5417C61.1968 35.2351 61.0016 34.7093 61.0016 33.8733H60.2095ZM60.9656 36.1225C61.5176 36.5956 62.3643 36.7881 63.4095 36.7881V35.996C62.427 35.996 61.8163 35.8084 61.4811 35.5211L60.9656 36.1225ZM63.4095 36.7881H66.4986V35.996H63.4095V36.7881ZM66.1026 36.3921V42H66.8947V36.3921H66.1026ZM66.4986 41.604H62.3165V42.396H66.4986V41.604ZM62.3165 41.604C59.5707 41.604 57.5847 40.9368 56.2835 39.6724C54.9845 38.41 54.3006 36.4865 54.3006 33.8257H53.5085C53.5085 36.6145 54.2267 38.7781 55.7315 40.2405C57.2343 41.7008 59.4542 42.396 62.3165 42.396V41.604ZM54.3006 33.8257V21.1366H53.5085V33.8257H54.3006ZM53.9046 20.7406H50.7679V21.5327H53.9046V20.7406ZM51.164 21.1366V15.6713H50.3719V21.1366H51.164ZM50.7679 16.0673H53.9046V15.2752H50.7679V16.0673ZM54.3006 15.6713V9.1604H53.5085V15.6713H54.3006ZM53.9046 9.55644H60.6056V8.76436H53.9046V9.55644ZM60.2095 9.1604V15.6713H61.0016V9.1604H60.2095ZM60.6056 16.0673H66.4986V15.2752H60.6056V16.0673ZM66.1026 15.6713V21.1366H66.8947V15.6713H66.1026ZM66.4986 20.7406H60.6056V21.5327H66.4986V20.7406ZM68.3851 11.4416L68.1051 11.7216L68.1109 11.7275L68.117 11.733L68.3851 11.4416ZM68.3851 5.88119L68.6592 6.16712L68.6594 6.16689L68.3851 5.88119ZM74.2307 5.88119L73.9506 6.16123L73.9565 6.16706L73.9625 6.17265L74.2307 5.88119ZM74.2307 11.4416L74.5047 11.7275L74.505 11.7273L74.2307 11.4416ZM74.6109 15.6713H75.0069V15.2752H74.6109V15.6713ZM74.6109 42V42.396H75.0069V42H74.6109ZM67.9574 42H67.5614V42.396H67.9574V42ZM67.9574 15.6713V15.2752H67.5614V15.6713H67.9574ZM71.3317 12.1386C70.2491 12.1386 69.3655 11.8053 68.6533 11.1501L68.117 11.733C68.989 12.5353 70.0697 12.9307 71.3317 12.9307V12.1386ZM68.6652 11.1615C67.9816 10.478 67.6406 9.64516 67.6406 8.63762H66.8485C66.8485 9.84791 67.2679 10.8844 68.1051 11.7216L68.6652 11.1615ZM67.6406 8.63762C67.6406 7.63028 67.9812 6.81683 68.6592 6.16712L68.1111 5.59525C67.2683 6.40297 66.8485 7.42715 66.8485 8.63762H67.6406ZM68.6594 6.16689C69.3724 5.4824 70.254 5.13663 71.3317 5.13663V4.34455C70.0648 4.34455 68.982 4.75919 68.1109 5.59549L68.6594 6.16689ZM71.3317 5.13663C72.4093 5.13663 73.2716 5.48217 73.9506 6.16123L74.5107 5.60115C73.669 4.75942 72.5986 4.34455 71.3317 4.34455V5.13663ZM73.9625 6.17265C74.6704 6.82383 75.0228 7.63567 75.0228 8.63762H75.8148C75.8148 7.42175 75.3752 6.39597 74.4988 5.58973L73.9625 6.17265ZM75.0228 8.63762C75.0228 9.63991 74.6698 10.471 73.9564 11.1559L74.505 11.7273C75.3757 10.8914 75.8148 9.85316 75.8148 8.63762H75.0228ZM73.9567 11.1556C73.2786 11.8055 72.4144 12.1386 71.3317 12.1386V12.9307C72.5935 12.9307 73.662 12.5351 74.5047 11.7275L73.9567 11.1556ZM74.2148 15.6713V42H75.0069V15.6713H74.2148ZM74.6109 41.604H67.9574V42.396H74.6109V41.604ZM68.3535 42V15.6713H67.5614V42H68.3535ZM67.9574 16.0673H74.6109V15.2752H67.9574V16.0673ZM82.135 41.2871L81.9686 41.6466L81.9742 41.649L82.135 41.2871ZM78.0479 38.103L77.7292 38.3382L77.7329 38.343L78.0479 38.103ZM76.432 33.6832V33.2871H76.012L76.0367 33.7064L76.432 33.6832ZM83.133 33.6832L83.526 33.634L83.4827 33.2871H83.133V33.6832ZM84.6063 36.202L84.3631 36.5146L84.3687 36.5188L84.6063 36.202ZM90.832 36.4396L90.6058 36.1144L90.5991 36.1193L90.832 36.4396ZM90.5944 32.5901L90.4121 32.9417L90.4198 32.9457L90.4276 32.9493L90.5944 32.5901ZM86.4598 31.1644L86.5618 30.7816L86.5529 30.7794L86.4598 31.1644ZM81.6122 29.6911L81.4619 30.0575L81.4652 30.0588L81.6122 29.6911ZM78.3806 27.3624L78.0785 27.6186L78.0831 27.6238L78.3806 27.3624ZM78.2855 19.1406L77.9626 18.9112L77.9587 18.917L78.2855 19.1406ZM81.8974 16.2891L81.7379 15.9266L81.7352 15.9278L81.8974 16.2891ZM94.9667 17.6198L94.7106 17.922L94.7137 17.9245L94.9667 17.6198ZM98.0558 23.9406V24.3366H98.4811L98.4508 23.9124L98.0558 23.9406ZM91.6875 23.9406L91.2931 23.9764L91.3258 24.3366H91.6875V23.9406ZM90.3568 21.4693L90.1033 21.7736L90.1101 21.7792L90.1172 21.7846L90.3568 21.4693ZM84.4637 21.1842L84.244 20.8545L84.2366 20.8597L84.4637 21.1842ZM84.8439 25.0812L84.6568 25.4304L84.6668 25.4354L84.8439 25.0812ZM88.9786 26.4594L88.881 26.8432L88.8825 26.8436L88.9786 26.4594ZM96.8677 30.3089L96.5618 30.5608L96.5702 30.5703L96.8677 30.3089ZM98.2934 34.4911H98.6895L98.6894 34.4839L98.2934 34.4911ZM97.0103 38.5782L96.6874 38.3488L96.6834 38.3546L97.0103 38.5782ZM93.3984 41.4297L93.5544 41.7937L93.5579 41.7922L93.3984 41.4297ZM87.933 42.0317C85.8257 42.0317 83.949 41.66 82.2959 40.9252L81.9742 41.649C83.7428 42.4351 85.7315 42.8238 87.933 42.8238V42.0317ZM82.3014 40.9277C80.6415 40.1593 79.333 39.1361 78.3629 37.863L77.7329 38.343C78.7905 39.7312 80.2067 40.8308 81.9686 41.6465L82.3014 40.9277ZM78.3665 37.8678C77.4289 36.5974 76.9178 35.1974 76.8274 33.6599L76.0367 33.7064C76.1363 35.4006 76.7026 36.9472 77.7292 38.3382L78.3665 37.8678ZM76.432 34.0792H83.133V33.2871H76.432V34.0792ZM82.7401 33.7323C82.8807 34.8572 83.4304 35.7891 84.3632 36.5146L84.8495 35.8894C84.0713 35.2842 83.6389 34.5369 83.526 33.634L82.7401 33.7323ZM84.3687 36.5188C85.3356 37.244 86.516 37.596 87.8855 37.596V36.804C86.657 36.804 85.6513 36.4906 84.8439 35.8851L84.3687 36.5188ZM87.8855 37.596C89.199 37.596 90.2752 37.3343 91.065 36.7599L90.5991 36.1193C89.9949 36.5587 89.1067 36.804 87.8855 36.804V37.596ZM91.0582 36.7647C91.8784 36.1942 92.3212 35.43 92.3212 34.4911H91.5291C91.5291 35.1363 91.2431 35.6712 90.6059 36.1145L91.0582 36.7647ZM92.3212 34.4911C92.3212 33.9911 92.1902 33.5376 91.9169 33.1471C91.6458 32.7599 91.2516 32.4586 90.7612 32.2309L90.4276 32.9493C90.8244 33.1335 91.0955 33.3549 91.268 33.6014C91.4383 33.8446 91.5291 34.1356 91.5291 34.4911H92.3212ZM90.7767 32.2385C89.8811 31.7741 88.4681 31.29 86.5618 30.7817L86.3577 31.547C88.2534 32.0525 89.5968 32.5189 90.4121 32.9417L90.7767 32.2385ZM86.5529 30.7794C84.5991 30.3067 83.0029 29.8208 81.7593 29.3234L81.4652 30.0588C82.7562 30.5752 84.3918 31.0715 86.3666 31.5493L86.5529 30.7794ZM81.7626 29.3247C80.5858 28.8419 79.5583 28.1026 78.6781 27.1009L78.0831 27.6238C79.0404 28.7132 80.1674 29.5264 81.4619 30.0575L81.7626 29.3247ZM78.6825 27.1061C77.8721 26.151 77.4459 24.8412 77.4459 23.1327H76.6538C76.6538 24.9727 77.1147 26.4826 78.0786 27.6186L78.6825 27.1061ZM77.4459 23.1327C77.4459 21.7551 77.8336 20.5024 78.6124 19.3642L77.9587 18.917C77.0899 20.1867 76.6538 21.5954 76.6538 23.1327H77.4459ZM78.6084 19.37C79.4171 18.2318 80.5615 17.323 82.0596 16.6504L81.7352 15.9278C80.1283 16.6493 78.8648 17.6415 77.9627 18.9112L78.6084 19.37ZM82.0569 16.6516C83.5808 15.9811 85.3778 15.6396 87.4578 15.6396V14.8475C85.2922 14.8475 83.3823 15.2031 81.7379 15.9266L82.0569 16.6516ZM87.4578 15.6396C90.5275 15.6396 92.931 16.4138 94.7107 17.9219L95.2227 17.3177C93.2638 15.6575 90.6613 14.8475 87.4578 14.8475V15.6396ZM94.7137 17.9245C96.4914 19.4009 97.4775 21.4034 97.6608 23.9688L98.4508 23.9124C98.2539 21.155 97.1807 18.9437 95.2197 17.3151L94.7137 17.9245ZM98.0558 23.5446H91.6875V24.3366H98.0558V23.5446ZM92.0819 23.9047C91.9774 22.7553 91.4824 21.8273 90.5964 21.154L90.1172 21.7846C90.8153 22.3152 91.2075 23.0348 91.2931 23.9764L92.0819 23.9047ZM90.6103 21.1651C89.7591 20.4557 88.6301 20.1228 87.2677 20.1228V20.9149C88.5033 20.9149 89.4337 21.2156 90.1033 21.7736L90.6103 21.1651ZM87.2677 20.1228C86.0226 20.1228 84.9996 20.3509 84.244 20.8546L84.6834 21.5137C85.2585 21.1303 86.1049 20.9149 87.2677 20.9149V20.1228ZM84.2366 20.8597C83.4941 21.3795 83.1172 22.12 83.1172 23.0376H83.9093C83.9093 22.3711 84.1661 21.876 84.6908 21.5086L84.2366 20.8597ZM83.1172 23.0376C83.1172 23.5506 83.2466 24.0192 83.514 24.43C83.7798 24.8382 84.1684 25.1686 84.6569 25.4303L85.0309 24.7321C84.6323 24.5185 84.3556 24.2708 84.1778 23.9978C84.0017 23.7273 83.9093 23.4118 83.9093 23.0376H83.1172ZM84.6668 25.4354C85.5931 25.8986 87.0048 26.3662 88.881 26.8432L89.0762 26.0756C87.2137 25.6021 85.869 25.1509 85.021 24.727L84.6668 25.4354ZM88.8825 26.8436C90.7727 27.3162 92.3213 27.8019 93.5332 28.2991L93.8339 27.5663C92.5745 27.0496 90.9864 26.5531 89.0746 26.0752L88.8825 26.8436ZM93.5332 28.2991C94.7056 28.7801 95.7145 29.5316 96.562 30.5607L97.1734 30.0571C96.2467 28.9318 95.1327 28.0991 93.8339 27.5663L93.5332 28.2991ZM96.5702 30.5703C97.4128 31.5291 97.867 32.8251 97.8975 34.4983L98.6894 34.4839C98.6565 32.6719 98.1603 31.1798 97.1652 30.0475L96.5702 30.5703ZM97.8974 34.4911C97.8974 35.9323 97.4938 37.214 96.6874 38.3488L97.3331 38.8076C98.2377 37.5345 98.6895 36.0915 98.6895 34.4911H97.8974ZM96.6834 38.3546C95.9086 39.487 94.7681 40.3943 93.2389 41.0672L93.5579 41.7922C95.1969 41.071 96.4644 40.0774 97.3371 38.8019L96.6834 38.3546ZM93.2424 41.0657C91.7494 41.7055 89.9829 42.0317 87.933 42.0317V42.8238C90.0654 42.8238 91.9424 42.4846 93.5544 41.7937L93.2424 41.0657ZM108.175 21.1366V20.7406H107.779V21.1366H108.175ZM108.793 35.8218L108.513 36.1018L108.523 36.1126L108.535 36.1225L108.793 35.8218ZM114.068 36.3921H114.464V35.996H114.068V36.3921ZM114.068 42V42.396H114.464V42H114.068ZM101.474 21.1366H101.87V20.7406H101.474V21.1366ZM98.3373 21.1366H97.9412V21.5327H98.3373V21.1366ZM98.3373 15.6713V15.2752H97.9412V15.6713H98.3373ZM101.474 15.6713V16.0673H101.87V15.6713H101.474ZM101.474 9.1604V8.76436H101.078V9.1604H101.474ZM108.175 9.1604H108.571V8.76436H108.175V9.1604ZM108.175 15.6713H107.779V16.0673H108.175V15.6713ZM114.068 15.6713H114.464V15.2752H114.068V15.6713ZM114.068 21.1366V21.5327H114.464V21.1366H114.068ZM107.779 21.1366V33.8733H108.571V21.1366H107.779ZM107.779 33.8733C107.779 34.8115 107.996 35.5847 108.513 36.1018L109.073 35.5417C108.766 35.2351 108.571 34.7093 108.571 33.8733H107.779ZM108.535 36.1225C109.087 36.5956 109.934 36.7881 110.979 36.7881V35.996C109.996 35.996 109.386 35.8084 109.05 35.5211L108.535 36.1225ZM110.979 36.7881H114.068V35.996H110.979V36.7881ZM113.672 36.3921V42H114.464V36.3921H113.672ZM114.068 41.604H109.886V42.396H114.068V41.604ZM109.886 41.604C107.14 41.604 105.154 40.9368 103.853 39.6724C102.554 38.41 101.87 36.4865 101.87 33.8257H101.078C101.078 36.6145 101.796 38.7781 103.301 40.2405C104.804 41.7008 107.024 42.396 109.886 42.396V41.604ZM101.87 33.8257V21.1366H101.078V33.8257H101.87ZM101.474 20.7406H98.3373V21.5327H101.474V20.7406ZM98.7333 21.1366V15.6713H97.9412V21.1366H98.7333ZM98.3373 16.0673H101.474V15.2752H98.3373V16.0673ZM101.87 15.6713V9.1604H101.078V15.6713H101.87ZM101.474 9.55644H108.175V8.76436H101.474V9.55644ZM107.779 9.1604V15.6713H108.571V9.1604H107.779ZM108.175 16.0673H114.068V15.2752H108.175V16.0673ZM113.672 15.6713V21.1366H114.464V15.6713H113.672ZM114.068 20.7406H108.175V21.5327H114.068V20.7406ZM122.18 19.7584H121.784V21.161L122.518 19.9656L122.18 19.7584ZM125.507 16.4792L125.311 16.1349L125.308 16.1368L125.507 16.4792ZM130.259 15.2911H130.655V14.895H130.259V15.2911ZM130.259 22.2772V22.6733H130.655V22.2772H130.259ZM123.749 23.7505L123.482 23.4578L123.477 23.4618L123.749 23.7505ZM122.18 42V42.396H122.576V42H122.18ZM115.527 42H115.131V42.396H115.527V42ZM115.527 15.6713V15.2752H115.131V15.6713H115.527ZM122.18 15.6713H122.576V15.2752H122.18V15.6713ZM122.518 19.9656C123.34 18.6251 124.402 17.5795 125.706 16.8216L125.308 16.1368C123.887 16.9631 122.731 18.1036 121.843 19.5513L122.518 19.9656ZM125.703 16.8235C127.031 16.0689 128.546 15.6871 130.259 15.6871V14.895C128.424 14.895 126.771 15.3054 125.311 16.1349L125.703 16.8235ZM129.863 15.2911V22.2772H130.655V15.2911H129.863ZM130.259 21.8812H128.501V22.6733H130.259V21.8812ZM128.501 21.8812C126.354 21.8812 124.658 22.3852 123.482 23.4578L124.015 24.0432C124.993 23.1515 126.466 22.6733 128.501 22.6733V21.8812ZM123.477 23.4618C122.311 24.5571 121.784 26.4067 121.784 28.8832H122.576C122.576 26.4804 123.095 24.9082 124.02 24.0391L123.477 23.4618ZM121.784 28.8832V42H122.576V28.8832H121.784ZM122.18 41.604H115.527V42.396H122.18V41.604ZM115.923 42V15.6713H115.131V42H115.923ZM115.527 16.0673H122.18V15.2752H115.527V16.0673ZM121.784 15.6713V19.7584H122.576V15.6713H121.784ZM156.602 15.6713L156.967 15.8248L157.198 15.2752H156.602V15.6713ZM140.301 54.4515V54.8475H140.564L140.666 54.605L140.301 54.4515ZM133.22 54.4515L132.857 54.2936L132.616 54.8475H133.22V54.4515ZM138.923 41.3347L139.286 41.4926L139.353 41.339L139.289 41.1841L138.923 41.3347ZM128.373 15.6713V15.2752H127.782L128.006 15.8219L128.373 15.6713ZM135.834 15.6713L136.205 15.534L136.11 15.2752H135.834V15.6713ZM142.63 34.0634L142.258 34.2006L142.627 35.199L143.001 34.2023L142.63 34.0634ZM149.521 15.6713V15.2752H149.246L149.15 15.5323L149.521 15.6713ZM156.237 15.5178L139.936 54.298L140.666 54.605L156.967 15.8248L156.237 15.5178ZM140.301 54.0554H133.22V54.8475H140.301V54.0554ZM133.583 54.6094L139.286 41.4926L138.56 41.1767L132.857 54.2936L133.583 54.6094ZM139.289 41.1841L128.739 15.5207L128.006 15.8219L138.557 41.4852L139.289 41.1841ZM128.373 16.0673H135.834V15.2752H128.373V16.0673ZM135.462 15.8086L142.258 34.2006L143.001 33.9261L136.205 15.534L135.462 15.8086ZM143.001 34.2023L149.892 15.8102L149.15 15.5323L142.259 33.9244L143.001 34.2023ZM149.521 16.0673H156.602V15.2752H149.521V16.0673Z" fill="white" mask="url(#path-1-outside-1_310_34)"/>
<g filter="url(#filter1_f_310_34)">
<path d="M26.6198 35.6792H13.4079L11.2218 42H4.23564L16.1644 8.7802H23.9109L35.8396 42H28.8059L26.6198 35.6792ZM24.8139 30.3564L20.0139 16.4792L15.2139 30.3564H24.8139ZM43.6251 19.7584C44.4806 18.3644 45.5895 17.2713 46.9519 16.4792C48.3459 15.6871 49.9301 15.2911 51.7043 15.2911V22.2772H49.9459C47.8548 22.2772 46.2707 22.7683 45.1934 23.7505C44.1479 24.7327 43.6251 26.4436 43.6251 28.8832V42H36.9717V15.6713H43.6251V19.7584ZM60.6056 21.1366V33.8733C60.6056 34.7604 60.8115 35.4099 61.2234 35.8218C61.667 36.202 62.3957 36.3921 63.4095 36.3921H66.4986V42H62.3165C56.7085 42 53.9046 39.2752 53.9046 33.8257V21.1366H50.7679V15.6713H53.9046V9.1604H60.6056V15.6713H66.4986V21.1366H60.6056ZM71.3317 12.5347C70.1594 12.5347 69.1772 12.1703 68.3851 11.4416C67.6247 10.6812 67.2446 9.74653 67.2446 8.63762C67.2446 7.52871 67.6247 6.6099 68.3851 5.88119C69.1772 5.12079 70.1594 4.74059 71.3317 4.74059C72.504 4.74059 73.4703 5.12079 74.2307 5.88119C75.0228 6.6099 75.4188 7.52871 75.4188 8.63762C75.4188 9.74653 75.0228 10.6812 74.2307 11.4416C73.4703 12.1703 72.504 12.5347 71.3317 12.5347ZM74.6109 15.6713V42H67.9574V15.6713H74.6109ZM87.933 42.4277C85.7786 42.4277 83.8459 42.0475 82.135 41.2871C80.4241 40.495 79.0618 39.4337 78.0479 38.103C77.0657 36.7723 76.5271 35.299 76.432 33.6832H83.133C83.2598 34.697 83.7509 35.5366 84.6063 36.202C85.4934 36.8673 86.5865 37.2 87.8855 37.2C89.1528 37.2 90.135 36.9465 90.832 36.4396C91.5608 35.9327 91.9251 35.2832 91.9251 34.4911C91.9251 33.6356 91.4816 33.002 90.5944 32.5901C89.739 32.1465 88.3608 31.6713 86.4598 31.1644C84.4954 30.6891 82.8796 30.198 81.6122 29.6911C80.3766 29.1842 79.2994 28.4079 78.3806 27.3624C77.4934 26.3168 77.0499 24.9069 77.0499 23.1327C77.0499 21.6752 77.4618 20.3446 78.2855 19.1406C79.141 17.9366 80.3449 16.9861 81.8974 16.2891C83.4816 15.5921 85.335 15.2436 87.4578 15.2436C90.5944 15.2436 93.0974 16.0356 94.9667 17.6198C96.836 19.1723 97.8657 21.2792 98.0558 23.9406H91.6875C91.5924 22.895 91.1489 22.0713 90.3568 21.4693C89.5964 20.8356 88.5667 20.5188 87.2677 20.5188C86.0637 20.5188 85.1291 20.7406 84.4637 21.1842C83.8301 21.6277 83.5132 22.2455 83.5132 23.0376C83.5132 23.9248 83.9568 24.6059 84.8439 25.0812C85.7311 25.5248 87.1093 25.9842 88.9786 26.4594C90.8796 26.9347 92.4479 27.4257 93.6835 27.9327C94.9192 28.4396 95.9806 29.2317 96.8677 30.3089C97.7865 31.3545 98.2618 32.7485 98.2934 34.4911C98.2934 36.0119 97.8657 37.3743 97.0103 38.5782C96.1865 39.7822 94.9825 40.7327 93.3984 41.4297C91.8459 42.095 90.0241 42.4277 87.933 42.4277ZM108.175 21.1366V33.8733C108.175 34.7604 108.381 35.4099 108.793 35.8218C109.236 36.202 109.965 36.3921 110.979 36.3921H114.068V42H109.886C104.278 42 101.474 39.2752 101.474 33.8257V21.1366H98.3373V15.6713H101.474V9.1604H108.175V15.6713H114.068V21.1366H108.175ZM122.18 19.7584C123.036 18.3644 124.145 17.2713 125.507 16.4792C126.901 15.6871 128.485 15.2911 130.259 15.2911V22.2772H128.501C126.41 22.2772 124.826 22.7683 123.749 23.7505C122.703 24.7327 122.18 26.4436 122.18 28.8832V42H115.527V15.6713H122.18V19.7584ZM156.602 15.6713L140.301 54.4515H133.22L138.923 41.3347L128.373 15.6713H135.834L142.63 34.0634L149.521 15.6713H156.602Z" fill="#D9D9D9"/>
</g>
<mask id="path-4-outside-2_310_34" maskUnits="userSpaceOnUse" x="19" y="43.2969" width="112" height="22" fill="black">
<rect fill="white" x="19" y="43.2969" width="112" height="22"/>
<path d="M23.5362 45.629V57.1827C23.5362 58.4487 23.866 59.4204 24.5257 60.0979C25.1855 60.7576 26.1126 61.0875 27.3072 61.0875C28.5196 61.0875 29.4557 60.7576 30.1154 60.0979C30.7751 59.4204 31.105 58.4487 31.105 57.1827V45.629H34.876V57.156C34.876 58.7429 34.5283 60.089 33.833 61.1945C33.1554 62.2821 32.2372 63.1023 31.0782 63.655C29.9371 64.2077 28.6623 64.4841 27.2537 64.4841C25.863 64.4841 24.5971 64.2077 23.456 63.655C22.3327 63.1023 21.4412 62.2821 20.7815 61.1945C20.1218 60.089 19.7919 58.7429 19.7919 57.156V45.629H23.5362ZM44.8322 49.2663C46.5974 49.2663 48.0238 49.8279 49.1114 50.9512C50.199 52.0566 50.7428 53.6078 50.7428 55.6048V64.2969H46.9985V56.1129C46.9985 54.9362 46.7043 54.0358 46.116 53.4117C45.5276 52.7698 44.7252 52.4489 43.7089 52.4489C42.6748 52.4489 41.8546 52.7698 41.2484 53.4117C40.66 54.0358 40.3658 54.9362 40.3658 56.1129V64.2969H36.6215V49.4802H40.3658V51.3256C40.8651 50.6837 41.498 50.1845 42.2647 49.8279C43.0492 49.4535 43.9051 49.2663 44.8322 49.2663ZM56.1756 51.6466C56.657 50.9334 57.3167 50.3539 58.1547 49.9081C59.0105 49.4624 59.9823 49.2395 61.0699 49.2395C62.3358 49.2395 63.4769 49.5515 64.4932 50.1756C65.5274 50.7996 66.3386 51.6911 66.927 52.8501C67.5332 53.9912 67.8363 55.3195 67.8363 56.8351C67.8363 58.3506 67.5332 59.6968 66.927 60.8735C66.3386 62.0325 65.5274 62.9329 64.4932 63.5748C63.4769 64.2166 62.3358 64.5376 61.0699 64.5376C59.9644 64.5376 58.9927 64.3236 58.1547 63.8957C57.3345 63.45 56.6748 62.8794 56.1756 62.184V64.2969H52.4313V44.5057H56.1756V51.6466ZM64.0118 56.8351C64.0118 55.9436 63.8246 55.1769 63.4502 54.535C63.0936 53.8753 62.6122 53.3761 62.006 53.0373C61.4176 52.6985 60.7757 52.5291 60.0803 52.5291C59.4028 52.5291 58.7609 52.7074 58.1547 53.064C57.5663 53.4028 57.0849 53.902 56.7105 54.5617C56.3539 55.2214 56.1756 55.9971 56.1756 56.8885C56.1756 57.78 56.3539 58.5556 56.7105 59.2153C57.0849 59.8751 57.5663 60.3832 58.1547 60.7398C58.7609 61.0786 59.4028 61.248 60.0803 61.248C60.7757 61.248 61.4176 61.0697 62.006 60.7131C62.6122 60.3565 63.0936 59.8483 63.4502 59.1886C63.8246 58.5289 64.0118 57.7444 64.0118 56.8351ZM75.2643 64.5376C73.8379 64.5376 72.5542 64.2256 71.4131 63.6015C70.2719 62.9596 69.3715 62.0592 68.7118 60.9003C68.0699 59.7413 67.749 58.4041 67.749 56.8885C67.749 55.373 68.0789 54.0358 68.7386 52.8768C69.4161 51.7179 70.3343 50.8264 71.4933 50.2023C72.6522 49.5605 73.9449 49.2395 75.3713 49.2395C76.7977 49.2395 78.0904 49.5605 79.2493 50.2023C80.4082 50.8264 81.3176 51.7179 81.9773 52.8768C82.6548 54.0358 82.9936 55.373 82.9936 56.8885C82.9936 58.4041 82.6459 59.7413 81.9505 60.9003C81.273 62.0592 80.3458 62.9596 79.1691 63.6015C78.0101 64.2256 76.7085 64.5376 75.2643 64.5376ZM75.2643 61.2747C75.9419 61.2747 76.5748 61.1142 77.1632 60.7933C77.7694 60.4545 78.2508 59.9553 78.6074 59.2956C78.964 58.6359 79.1423 57.8335 79.1423 56.8885C79.1423 55.48 78.7679 54.4013 78.019 53.6524C77.288 52.8857 76.3876 52.5024 75.3178 52.5024C74.248 52.5024 73.3476 52.8857 72.6166 53.6524C71.9034 54.4013 71.5468 55.48 71.5468 56.8885C71.5468 58.2971 71.8945 59.3847 72.5898 60.1514C73.303 60.9003 74.1945 61.2747 75.2643 61.2747ZM97.8556 49.4802V64.2969H94.0845V62.4247C93.6031 63.0666 92.9702 63.5748 92.1857 63.9492C91.419 64.3058 90.581 64.4841 89.6716 64.4841C88.5127 64.4841 87.4875 64.2434 86.596 63.762C85.7045 63.2627 85.0002 62.5406 84.4831 61.5956C83.9839 60.6328 83.7343 59.4917 83.7343 58.1723V49.4802H87.4786V57.6374C87.4786 58.8142 87.7728 59.7235 88.3611 60.3654C88.9495 60.9894 89.7519 61.3014 90.7682 61.3014C91.8023 61.3014 92.6136 60.9894 93.202 60.3654C93.7904 59.7235 94.0845 58.8142 94.0845 57.6374V49.4802H97.8556ZM107.888 49.2663C109.654 49.2663 111.08 49.8279 112.168 50.9512C113.255 52.0566 113.799 53.6078 113.799 55.6048V64.2969H110.055V56.1129C110.055 54.9362 109.761 54.0358 109.172 53.4117C108.584 52.7698 107.781 52.4489 106.765 52.4489C105.731 52.4489 104.911 52.7698 104.305 53.4117C103.716 54.0358 103.422 54.9362 103.422 56.1129V64.2969H99.6778V49.4802H103.422V51.3256C103.921 50.6837 104.554 50.1845 105.321 49.8279C106.105 49.4535 106.961 49.2663 107.888 49.2663ZM114.525 56.8351C114.525 55.3373 114.819 54.009 115.407 52.8501C116.014 51.6911 116.834 50.7996 117.868 50.1756C118.902 49.5515 120.052 49.2395 121.318 49.2395C122.281 49.2395 123.199 49.4535 124.073 49.8814C124.946 50.2915 125.642 50.8442 126.159 51.5396V44.5057H129.957V64.2969H126.159V62.1038C125.695 62.8348 125.044 63.4232 124.206 63.869C123.368 64.3147 122.397 64.5376 121.291 64.5376C120.043 64.5376 118.902 64.2166 117.868 63.5748C116.834 62.9329 116.014 62.0325 115.407 60.8735C114.819 59.6968 114.525 58.3506 114.525 56.8351ZM126.185 56.8885C126.185 55.9792 126.007 55.2036 125.651 54.5617C125.294 53.902 124.813 53.4028 124.206 53.064C123.6 52.7074 122.949 52.5291 122.254 52.5291C121.559 52.5291 120.917 52.6985 120.328 53.0373C119.74 53.3761 119.259 53.8753 118.884 54.535C118.528 55.1769 118.349 55.9436 118.349 56.8351C118.349 57.7266 118.528 58.5111 118.884 59.1886C119.259 59.8483 119.74 60.3565 120.328 60.7131C120.935 61.0697 121.576 61.248 122.254 61.248C122.949 61.248 123.6 61.0786 124.206 60.7398C124.813 60.3832 125.294 59.884 125.651 59.2421C126.007 58.5824 126.185 57.7979 126.185 56.8885Z"/>
</mask>
<path d="M23.5362 45.629V57.1827C23.5362 58.4487 23.866 59.4204 24.5257 60.0979C25.1855 60.7576 26.1126 61.0875 27.3072 61.0875C28.5196 61.0875 29.4557 60.7576 30.1154 60.0979C30.7751 59.4204 31.105 58.4487 31.105 57.1827V45.629H34.876V57.156C34.876 58.7429 34.5283 60.089 33.833 61.1945C33.1554 62.2821 32.2372 63.1023 31.0782 63.655C29.9371 64.2077 28.6623 64.4841 27.2537 64.4841C25.863 64.4841 24.5971 64.2077 23.456 63.655C22.3327 63.1023 21.4412 62.2821 20.7815 61.1945C20.1218 60.089 19.7919 58.7429 19.7919 57.156V45.629H23.5362ZM44.8322 49.2663C46.5974 49.2663 48.0238 49.8279 49.1114 50.9512C50.199 52.0566 50.7428 53.6078 50.7428 55.6048V64.2969H46.9985V56.1129C46.9985 54.9362 46.7043 54.0358 46.116 53.4117C45.5276 52.7698 44.7252 52.4489 43.7089 52.4489C42.6748 52.4489 41.8546 52.7698 41.2484 53.4117C40.66 54.0358 40.3658 54.9362 40.3658 56.1129V64.2969H36.6215V49.4802H40.3658V51.3256C40.8651 50.6837 41.498 50.1845 42.2647 49.8279C43.0492 49.4535 43.9051 49.2663 44.8322 49.2663ZM56.1756 51.6466C56.657 50.9334 57.3167 50.3539 58.1547 49.9081C59.0105 49.4624 59.9823 49.2395 61.0699 49.2395C62.3358 49.2395 63.4769 49.5515 64.4932 50.1756C65.5274 50.7996 66.3386 51.6911 66.927 52.8501C67.5332 53.9912 67.8363 55.3195 67.8363 56.8351C67.8363 58.3506 67.5332 59.6968 66.927 60.8735C66.3386 62.0325 65.5274 62.9329 64.4932 63.5748C63.4769 64.2166 62.3358 64.5376 61.0699 64.5376C59.9644 64.5376 58.9927 64.3236 58.1547 63.8957C57.3345 63.45 56.6748 62.8794 56.1756 62.184V64.2969H52.4313V44.5057H56.1756V51.6466ZM64.0118 56.8351C64.0118 55.9436 63.8246 55.1769 63.4502 54.535C63.0936 53.8753 62.6122 53.3761 62.006 53.0373C61.4176 52.6985 60.7757 52.5291 60.0803 52.5291C59.4028 52.5291 58.7609 52.7074 58.1547 53.064C57.5663 53.4028 57.0849 53.902 56.7105 54.5617C56.3539 55.2214 56.1756 55.9971 56.1756 56.8885C56.1756 57.78 56.3539 58.5556 56.7105 59.2153C57.0849 59.8751 57.5663 60.3832 58.1547 60.7398C58.7609 61.0786 59.4028 61.248 60.0803 61.248C60.7757 61.248 61.4176 61.0697 62.006 60.7131C62.6122 60.3565 63.0936 59.8483 63.4502 59.1886C63.8246 58.5289 64.0118 57.7444 64.0118 56.8351ZM75.2643 64.5376C73.8379 64.5376 72.5542 64.2256 71.4131 63.6015C70.2719 62.9596 69.3715 62.0592 68.7118 60.9003C68.0699 59.7413 67.749 58.4041 67.749 56.8885C67.749 55.373 68.0789 54.0358 68.7386 52.8768C69.4161 51.7179 70.3343 50.8264 71.4933 50.2023C72.6522 49.5605 73.9449 49.2395 75.3713 49.2395C76.7977 49.2395 78.0904 49.5605 79.2493 50.2023C80.4082 50.8264 81.3176 51.7179 81.9773 52.8768C82.6548 54.0358 82.9936 55.373 82.9936 56.8885C82.9936 58.4041 82.6459 59.7413 81.9505 60.9003C81.273 62.0592 80.3458 62.9596 79.1691 63.6015C78.0101 64.2256 76.7085 64.5376 75.2643 64.5376ZM75.2643 61.2747C75.9419 61.2747 76.5748 61.1142 77.1632 60.7933C77.7694 60.4545 78.2508 59.9553 78.6074 59.2956C78.964 58.6359 79.1423 57.8335 79.1423 56.8885C79.1423 55.48 78.7679 54.4013 78.019 53.6524C77.288 52.8857 76.3876 52.5024 75.3178 52.5024C74.248 52.5024 73.3476 52.8857 72.6166 53.6524C71.9034 54.4013 71.5468 55.48 71.5468 56.8885C71.5468 58.2971 71.8945 59.3847 72.5898 60.1514C73.303 60.9003 74.1945 61.2747 75.2643 61.2747ZM97.8556 49.4802V64.2969H94.0845V62.4247C93.6031 63.0666 92.9702 63.5748 92.1857 63.9492C91.419 64.3058 90.581 64.4841 89.6716 64.4841C88.5127 64.4841 87.4875 64.2434 86.596 63.762C85.7045 63.2627 85.0002 62.5406 84.4831 61.5956C83.9839 60.6328 83.7343 59.4917 83.7343 58.1723V49.4802H87.4786V57.6374C87.4786 58.8142 87.7728 59.7235 88.3611 60.3654C88.9495 60.9894 89.7519 61.3014 90.7682 61.3014C91.8023 61.3014 92.6136 60.9894 93.202 60.3654C93.7904 59.7235 94.0845 58.8142 94.0845 57.6374V49.4802H97.8556ZM107.888 49.2663C109.654 49.2663 111.08 49.8279 112.168 50.9512C113.255 52.0566 113.799 53.6078 113.799 55.6048V64.2969H110.055V56.1129C110.055 54.9362 109.761 54.0358 109.172 53.4117C108.584 52.7698 107.781 52.4489 106.765 52.4489C105.731 52.4489 104.911 52.7698 104.305 53.4117C103.716 54.0358 103.422 54.9362 103.422 56.1129V64.2969H99.6778V49.4802H103.422V51.3256C103.921 50.6837 104.554 50.1845 105.321 49.8279C106.105 49.4535 106.961 49.2663 107.888 49.2663ZM114.525 56.8351C114.525 55.3373 114.819 54.009 115.407 52.8501C116.014 51.6911 116.834 50.7996 117.868 50.1756C118.902 49.5515 120.052 49.2395 121.318 49.2395C122.281 49.2395 123.199 49.4535 124.073 49.8814C124.946 50.2915 125.642 50.8442 126.159 51.5396V44.5057H129.957V64.2969H126.159V62.1038C125.695 62.8348 125.044 63.4232 124.206 63.869C123.368 64.3147 122.397 64.5376 121.291 64.5376C120.043 64.5376 118.902 64.2166 117.868 63.5748C116.834 62.9329 116.014 62.0325 115.407 60.8735C114.819 59.6968 114.525 58.3506 114.525 56.8351ZM126.185 56.8885C126.185 55.9792 126.007 55.2036 125.651 54.5617C125.294 53.902 124.813 53.4028 124.206 53.064C123.6 52.7074 122.949 52.5291 122.254 52.5291C121.559 52.5291 120.917 52.6985 120.328 53.0373C119.74 53.3761 119.259 53.8753 118.884 54.535C118.528 55.1769 118.349 55.9436 118.349 56.8351C118.349 57.7266 118.528 58.5111 118.884 59.1886C119.259 59.8483 119.74 60.3565 120.328 60.7131C120.935 61.0697 121.576 61.248 122.254 61.248C122.949 61.248 123.6 61.0786 124.206 60.7398C124.813 60.3832 125.294 59.884 125.651 59.2421C126.007 58.5824 126.185 57.7979 126.185 56.8885Z" fill="#D9D9D9"/>
<path d="M23.5362 45.629H23.7591V45.4061H23.5362V45.629ZM24.5257 60.0979L24.3661 60.2534L24.3682 60.2555L24.5257 60.0979ZM30.1154 60.0979L30.273 60.2555L30.2751 60.2534L30.1154 60.0979ZM31.105 45.629V45.4061H30.8821V45.629H31.105ZM34.876 45.629H35.0989V45.4061H34.876V45.629ZM33.833 61.1945L33.6443 61.0758L33.6438 61.0766L33.833 61.1945ZM31.0782 63.655L30.9823 63.4538L30.9811 63.4544L31.0782 63.655ZM23.456 63.655L23.3576 63.855L23.3588 63.8556L23.456 63.655ZM20.7815 61.1945L20.5901 61.3087L20.5909 61.3101L20.7815 61.1945ZM19.7919 45.629V45.4061H19.569V45.629H19.7919ZM23.3133 45.629V57.1827H23.7591V45.629H23.3133ZM23.3133 57.1827C23.3133 58.4865 23.6536 59.5217 24.3661 60.2534L24.6854 59.9425C24.0784 59.3191 23.7591 58.4108 23.7591 57.1827H23.3133ZM24.3682 60.2555C25.0805 60.9679 26.0709 61.3104 27.3072 61.3104V60.8646C26.1544 60.8646 25.2904 60.5474 24.6833 59.9403L24.3682 60.2555ZM27.3072 61.3104C28.5603 61.3104 29.5601 60.9685 30.273 60.2555L29.9578 59.9403C29.3514 60.5468 28.479 60.8646 27.3072 60.8646V61.3104ZM30.2751 60.2534C30.9875 59.5217 31.3279 58.4865 31.3279 57.1827H30.8821C30.8821 58.4108 30.5627 59.3191 29.9557 59.9425L30.2751 60.2534ZM31.3279 57.1827V45.629H30.8821V57.1827H31.3279ZM31.105 45.8518H34.876V45.4061H31.105V45.8518ZM34.6531 45.629V57.156H35.0989V45.629H34.6531ZM34.6531 57.156C34.6531 58.7099 34.3129 60.0129 33.6443 61.0758L34.0216 61.3131C34.7437 60.1652 35.0989 58.7758 35.0989 57.156H34.6531ZM33.6438 61.0766C32.9888 62.1281 32.1029 62.9194 30.9823 63.4538L31.1742 63.8562C32.3714 63.2852 33.3221 62.4361 34.0221 61.3123L33.6438 61.0766ZM30.9811 63.4544C29.8735 63.9909 28.6324 64.2612 27.2537 64.2612V64.707C28.6922 64.707 30.0008 64.4245 31.1754 63.8556L30.9811 63.4544ZM27.2537 64.2612C25.8933 64.2612 24.6611 63.9911 23.5531 63.4544L23.3588 63.8556C24.533 64.4244 25.8326 64.707 27.2537 64.707V64.2612ZM23.5544 63.455C22.4699 62.9214 21.6101 62.1308 20.972 61.0789L20.5909 61.3101C21.2723 62.4334 22.1955 63.2832 23.3576 63.855L23.5544 63.455ZM20.9729 61.0803C20.3381 60.0165 20.0148 58.712 20.0148 57.156H19.569C19.569 58.7738 19.9055 60.1615 20.5901 61.3087L20.9729 61.0803ZM20.0148 57.156V45.629H19.569V57.156H20.0148ZM19.7919 45.8518H23.5362V45.4061H19.7919V45.8518ZM49.1114 50.9512L48.9513 51.1062L48.9525 51.1075L49.1114 50.9512ZM50.7428 64.2969V64.5197H50.9657V64.2969H50.7428ZM46.9985 64.2969H46.7757V64.5197H46.9985V64.2969ZM46.116 53.4117L45.9517 53.5623L45.9538 53.5646L46.116 53.4117ZM41.2484 53.4117L41.0864 53.2587L41.0862 53.2588L41.2484 53.4117ZM40.3658 64.2969V64.5197H40.5887V64.2969H40.3658ZM36.6215 64.2969H36.3987V64.5197H36.6215V64.2969ZM36.6215 49.4802V49.2573H36.3987V49.4802H36.6215ZM40.3658 49.4802H40.5887V49.2573H40.3658V49.4802ZM40.3658 51.3256H40.1429V51.9752L40.5417 51.4624L40.3658 51.3256ZM42.2647 49.8279L42.3587 50.03L42.3607 50.029L42.2647 49.8279ZM44.8322 49.4891C46.5455 49.4891 47.9112 50.0321 48.9513 51.1062L49.2715 50.7962C48.1363 49.6237 46.6492 49.0434 44.8322 49.0434V49.4891ZM48.9525 51.1075C49.9883 52.1602 50.5199 53.6488 50.5199 55.6048H50.9657C50.9657 53.5669 50.4098 51.9531 49.2703 50.7949L48.9525 51.1075ZM50.5199 55.6048V64.2969H50.9657V55.6048H50.5199ZM50.7428 64.074H46.9985V64.5197H50.7428V64.074ZM47.2214 64.2969V56.1129H46.7757V64.2969H47.2214ZM47.2214 56.1129C47.2214 54.9008 46.9181 53.9376 46.2781 53.2588L45.9538 53.5646C46.4906 54.134 46.7757 54.9716 46.7757 56.1129H47.2214ZM46.2803 53.2611C45.6425 52.5654 44.7763 52.226 43.7089 52.226V52.6718C44.6742 52.6718 45.4126 52.9743 45.9517 53.5623L46.2803 53.2611ZM43.7089 52.226C42.6249 52.226 41.7419 52.5645 41.0864 53.2587L41.4104 53.5647C41.9673 52.9751 42.7247 52.6718 43.7089 52.6718V52.226ZM41.0862 53.2588C40.4463 53.9376 40.1429 54.9008 40.1429 56.1129H40.5887C40.5887 54.9716 40.8737 54.134 41.4106 53.5646L41.0862 53.2588ZM40.1429 56.1129V64.2969H40.5887V56.1129H40.1429ZM40.3658 64.074H36.6215V64.5197H40.3658V64.074ZM36.8444 64.2969V49.4802H36.3987V64.2969H36.8444ZM36.6215 49.7031H40.3658V49.2573H36.6215V49.7031ZM40.1429 49.4802V51.3256H40.5887V49.4802H40.1429ZM40.5417 51.4624C41.0184 50.8496 41.6228 50.3723 42.3587 50.03L42.1707 49.6258C41.3732 49.9967 40.7117 50.5178 40.1899 51.1888L40.5417 51.4624ZM42.3607 50.029C43.1133 49.6699 43.936 49.4891 44.8322 49.4891V49.0434C43.8741 49.0434 42.9852 49.2371 42.1687 49.6268L42.3607 50.029ZM56.1756 51.6466H55.9527V52.3751L56.3603 51.7712L56.1756 51.6466ZM58.1547 49.9081L58.0517 49.7105L58.05 49.7114L58.1547 49.9081ZM64.4932 50.1756L64.3766 50.3655L64.3781 50.3664L64.4932 50.1756ZM66.927 52.8501L66.7283 52.951L66.7302 52.9546L66.927 52.8501ZM66.927 60.8735L66.7289 60.7715L66.7283 60.7726L66.927 60.8735ZM64.4932 63.5748L64.3757 63.3854L64.3742 63.3863L64.4932 63.5748ZM58.1547 63.8957L58.0482 64.0916L58.0533 64.0942L58.1547 63.8957ZM56.1756 62.184L56.3566 62.054L55.9527 61.4914V62.184H56.1756ZM56.1756 64.2969V64.5197H56.3985V64.2969H56.1756ZM52.4313 64.2969H52.2084V64.5197H52.4313V64.2969ZM52.4313 44.5057V44.2828H52.2084V44.5057H52.4313ZM56.1756 44.5057H56.3985V44.2828H56.1756V44.5057ZM63.4502 54.535L63.254 54.641L63.2577 54.6473L63.4502 54.535ZM62.006 53.0373L61.8948 53.2304L61.8972 53.2318L62.006 53.0373ZM58.1547 53.064L58.2659 53.2572L58.2677 53.2561L58.1547 53.064ZM56.7105 54.5617L56.5166 54.4517L56.5144 54.4558L56.7105 54.5617ZM56.7105 59.2153L56.5144 59.3214L56.5167 59.3254L56.7105 59.2153ZM58.1547 60.7398L58.0391 60.9305L58.046 60.9344L58.1547 60.7398ZM62.006 60.7131L61.893 60.5209L61.8904 60.5225L62.006 60.7131ZM63.4502 59.1886L63.2563 59.0786L63.2541 59.0826L63.4502 59.1886ZM56.3603 51.7712C56.8193 51.0913 57.4502 50.5353 58.2594 50.1049L58.05 49.7114C57.1832 50.1724 56.4947 50.7754 55.9909 51.5219L56.3603 51.7712ZM58.2577 50.1058C59.0779 49.6786 60.0135 49.4624 61.0699 49.4624V49.0166C59.951 49.0166 58.9432 49.2462 58.0518 49.7105L58.2577 50.1058ZM61.0699 49.4624C62.2973 49.4624 63.3976 49.7643 64.3766 50.3655L64.6099 49.9857C63.5563 49.3387 62.3743 49.0166 61.0699 49.0166V49.4624ZM64.3781 50.3664C65.3738 50.9672 66.1573 51.8263 66.7283 52.951L67.1258 52.7492C66.52 51.556 65.681 50.632 64.6084 49.9848L64.3781 50.3664ZM66.7302 52.9546C67.3166 54.0584 67.6135 55.3497 67.6135 56.8351H68.0592C68.0592 55.2894 67.7499 53.924 67.1238 52.7455L66.7302 52.9546ZM67.6135 56.8351C67.6135 58.3203 67.3166 59.6306 66.7289 60.7715L67.1252 60.9756C67.7498 59.763 68.0592 58.3809 68.0592 56.8351H67.6135ZM66.7283 60.7726C66.1571 61.8978 65.3728 62.7665 64.3757 63.3854L64.6108 63.7641C65.6819 63.0993 66.5202 62.1672 67.1258 60.9744L66.7283 60.7726ZM64.3742 63.3863C63.3955 64.0045 62.296 64.3147 61.0699 64.3147V64.7605C62.3756 64.7605 63.5584 64.4288 64.6123 63.7632L64.3742 63.3863ZM61.0699 64.3147C59.9935 64.3147 59.0576 64.1065 58.2561 63.6972L58.0533 64.0942C58.9278 64.5407 59.9353 64.7605 61.0699 64.7605V64.3147ZM58.2611 63.6999C57.4678 63.2687 56.8346 62.7197 56.3566 62.054L55.9945 62.314C56.5151 63.0391 57.2013 63.6312 58.0483 64.0915L58.2611 63.6999ZM55.9527 62.184V64.2969H56.3985V62.184H55.9527ZM56.1756 64.074H52.4313V64.5197H56.1756V64.074ZM52.6542 64.2969V44.5057H52.2084V64.2969H52.6542ZM52.4313 44.7285H56.1756V44.2828H52.4313V44.7285ZM55.9527 44.5057V51.6466H56.3985V44.5057H55.9527ZM64.2347 56.8351C64.2347 55.912 64.0406 55.1049 63.6427 54.4227L63.2577 54.6473C63.6086 55.2489 63.789 55.9751 63.789 56.8351H64.2347ZM63.6463 54.429C63.2712 53.7352 62.7608 53.2038 62.1147 52.8427L61.8972 53.2318C62.4636 53.5483 62.916 54.0154 63.2541 54.641L63.6463 54.429ZM62.1172 52.8441C61.4941 52.4854 60.8137 52.3063 60.0803 52.3063V52.752C60.7377 52.752 61.341 52.9116 61.8948 53.2304L62.1172 52.8441ZM60.0803 52.3063C59.3615 52.3063 58.6808 52.496 58.0417 52.8719L58.2677 53.2561C58.841 52.9189 59.4441 52.752 60.0803 52.752V52.3063ZM58.0435 52.8709C57.4167 53.2317 56.9084 53.7616 56.5167 54.4517L56.9043 54.6718C57.2615 54.0425 57.7159 53.5738 58.2659 53.2572L58.0435 52.8709ZM56.5144 54.4558C56.1372 55.1537 55.9527 55.967 55.9527 56.8885H56.3985C56.3985 56.0271 56.5706 55.2892 56.9065 54.6677L56.5144 54.4558ZM55.9527 56.8885C55.9527 57.8101 56.1372 58.6234 56.5144 59.3213L56.9065 59.1094C56.5706 58.4878 56.3985 57.75 56.3985 56.8885H55.9527ZM56.5167 59.3254C56.9079 60.0147 57.415 60.5521 58.0392 60.9304L58.2702 60.5492C57.7176 60.2143 57.2619 59.7354 56.9043 59.1053L56.5167 59.3254ZM58.046 60.9344C58.6846 61.2912 59.3638 61.4708 60.0803 61.4708V61.0251C59.4418 61.0251 58.8373 60.8659 58.2634 60.5453L58.046 60.9344ZM60.0803 61.4708C60.816 61.4708 61.4979 61.2816 62.1215 60.9037L61.8904 60.5225C61.3373 60.8577 60.7354 61.0251 60.0803 61.0251V61.4708ZM62.119 60.9052C62.7625 60.5266 63.2717 59.9876 63.6463 59.2946L63.2541 59.0826C62.9155 59.7091 62.4618 60.1863 61.893 60.521L62.119 60.9052ZM63.644 59.2986C64.0409 58.5993 64.2347 57.7753 64.2347 56.8351H63.789C63.789 57.7135 63.6083 58.4585 63.2564 59.0786L63.644 59.2986ZM71.4131 63.6015L71.3038 63.7958L71.3061 63.7971L71.4131 63.6015ZM68.7118 60.9003L68.5168 61.0083L68.5181 61.0105L68.7118 60.9003ZM68.7386 52.8768L68.5461 52.7643L68.5449 52.7666L68.7386 52.8768ZM71.4933 50.2023L71.599 50.3986L71.6013 50.3973L71.4933 50.2023ZM79.2493 50.2023L79.1413 50.3973L79.1436 50.3986L79.2493 50.2023ZM81.9773 52.8768L81.7836 52.9871L81.7849 52.9893L81.9773 52.8768ZM81.9505 60.9003L81.7594 60.7856L81.7581 60.7878L81.9505 60.9003ZM79.1691 63.6015L79.2747 63.7977L79.2758 63.7972L79.1691 63.6015ZM77.1632 60.7933L77.2699 60.989L77.2719 60.9879L77.1632 60.7933ZM78.6074 59.2956L78.8035 59.4016L78.8035 59.4016L78.6074 59.2956ZM78.019 53.6524L77.8577 53.8063L77.8614 53.81L78.019 53.6524ZM72.6166 53.6524L72.4553 53.4986L72.4552 53.4987L72.6166 53.6524ZM72.5898 60.1514L72.4247 60.3012L72.4284 60.3051L72.5898 60.1514ZM75.2643 64.3147C73.8716 64.3147 72.6252 64.0104 71.52 63.406L71.3061 63.7971C72.4831 64.4407 73.8042 64.7605 75.2643 64.7605V64.3147ZM71.5223 63.4073C70.4171 62.7856 69.5456 61.9145 68.9055 60.79L68.5181 61.0105C69.1974 62.2039 70.1267 63.1337 71.3038 63.7958L71.5223 63.4073ZM68.9068 60.7923C68.2857 59.6709 67.9719 58.3718 67.9719 56.8885H67.5261C67.5261 58.4364 67.8542 59.8118 68.5169 61.0083L68.9068 60.7923ZM67.9719 56.8885C67.9719 55.4063 68.2942 54.108 68.9323 52.9871L68.5449 52.7666C67.8636 53.9635 67.5261 55.3397 67.5261 56.8885H67.9719ZM68.931 52.9893C69.5883 51.865 70.4768 51.0028 71.599 50.3986L71.3876 50.0061C70.1919 50.65 69.2439 51.5708 68.5462 52.7643L68.931 52.9893ZM71.6013 50.3973C72.7247 49.7751 73.9797 49.4624 75.3713 49.4624V49.0166C73.9101 49.0166 72.5798 49.3458 71.3853 50.0074L71.6013 50.3973ZM75.3713 49.4624C76.7629 49.4624 78.0179 49.7751 79.1413 50.3973L79.3573 50.0074C78.1628 49.3458 76.8325 49.0166 75.3713 49.0166V49.4624ZM79.1436 50.3986C80.2652 51.0025 81.1443 51.864 81.7836 52.9871L82.171 52.7666C81.4909 51.5718 80.5512 50.6502 79.355 50.0061L79.1436 50.3986ZM81.7849 52.9893C82.44 54.1099 82.7707 55.4073 82.7707 56.8885H83.2165C83.2165 55.3387 82.8696 53.9616 82.1697 52.7643L81.7849 52.9893ZM82.7707 56.8885C82.7707 58.3687 82.4316 59.6654 81.7594 60.7856L82.1416 61.0149C82.8602 59.8173 83.2165 58.4395 83.2165 56.8885H82.7707ZM81.7581 60.7878C81.101 61.9118 80.2035 62.7834 79.0623 63.4058L79.2758 63.7972C80.4882 63.1358 81.445 62.2067 82.1429 61.0128L81.7581 60.7878ZM79.0634 63.4053C77.94 64.0102 76.6753 64.3147 75.2643 64.3147V64.7605C76.7418 64.7605 78.0802 64.4409 79.2747 63.7977L79.0634 63.4053ZM75.2643 61.4976C75.9787 61.4976 76.6484 61.328 77.2699 60.989L77.0565 60.5976C76.5012 60.9005 75.905 61.0518 75.2643 61.0518V61.4976ZM77.2719 60.9879C77.918 60.6268 78.4284 60.0954 78.8035 59.4016L78.4114 59.1896C78.0732 59.8152 77.6208 60.2823 77.0545 60.5987L77.2719 60.9879ZM78.8035 59.4016C79.1817 58.7019 79.3652 57.8611 79.3652 56.8885H78.9194C78.9194 57.806 78.7464 58.5698 78.4114 59.1896L78.8035 59.4016ZM79.3652 56.8885C79.3652 55.441 78.9797 54.2979 78.1766 53.4948L77.8614 53.81C78.5561 54.5047 78.9194 55.5189 78.9194 56.8885H79.3652ZM78.1803 53.4986C77.4068 52.6873 76.4479 52.2795 75.3178 52.2795V52.7253C76.3273 52.7253 77.1692 53.0841 77.8577 53.8062L78.1803 53.4986ZM75.3178 52.2795C74.1877 52.2795 73.2288 52.6873 72.4553 53.4986L72.7779 53.8062C73.4664 53.0841 74.3083 52.7253 75.3178 52.7253V52.2795ZM72.4552 53.4987C71.69 54.3021 71.3239 55.4438 71.3239 56.8885H71.7697C71.7697 55.5161 72.1167 54.5004 72.778 53.8061L72.4552 53.4987ZM71.3239 56.8885C71.3239 58.3323 71.6805 59.4806 72.4247 60.3012L72.7549 60.0017C72.1084 59.2888 71.7697 58.2619 71.7697 56.8885H71.3239ZM72.4284 60.3051C73.1853 61.0998 74.1359 61.4976 75.2643 61.4976V61.0518C74.2531 61.0518 73.4207 60.7007 72.7512 59.9977L72.4284 60.3051ZM97.8556 49.4802H98.0784V49.2573H97.8556V49.4802ZM97.8556 64.2969V64.5197H98.0784V64.2969H97.8556ZM94.0845 64.2969H93.8617V64.5197H94.0845V64.2969ZM94.0845 62.4247H94.3074V61.7561L93.9063 62.291L94.0845 62.4247ZM92.1857 63.9492L92.2797 64.1513L92.2817 64.1503L92.1857 63.9492ZM86.596 63.762L86.4871 63.9565L86.4901 63.9581L86.596 63.762ZM84.4831 61.5956L84.2852 61.6983L84.2876 61.7026L84.4831 61.5956ZM83.7343 49.4802V49.2573H83.5114V49.4802H83.7343ZM87.4786 49.4802H87.7014V49.2573H87.4786V49.4802ZM88.3611 60.3654L88.1968 60.516L88.199 60.5183L88.3611 60.3654ZM93.202 60.3654L93.3641 60.5183L93.3663 60.516L93.202 60.3654ZM94.0845 49.4802V49.2573H93.8617V49.4802H94.0845ZM97.6327 49.4802V64.2969H98.0784V49.4802H97.6327ZM97.8556 64.074H94.0845V64.5197H97.8556V64.074ZM94.3074 64.2969V62.4247H93.8617V64.2969H94.3074ZM93.9063 62.291C93.4482 62.9017 92.8445 63.3878 92.0897 63.7481L92.2817 64.1503C93.0959 63.7617 93.7581 63.2315 94.2628 62.5585L93.9063 62.291ZM92.0917 63.7471C91.3566 64.089 90.551 64.2612 89.6716 64.2612V64.707C90.611 64.707 91.4814 64.5226 92.2797 64.1513L92.0917 63.7471ZM89.6716 64.2612C88.5443 64.2612 87.5564 64.0273 86.7019 63.5659L86.4901 63.9581C87.4185 64.4594 88.4811 64.707 89.6716 64.707V64.2612ZM86.7049 63.5675C85.8519 63.0899 85.1768 62.399 84.6787 61.4887L84.2876 61.7026C84.8236 62.6822 85.5571 63.4356 86.4871 63.9564L86.7049 63.5675ZM84.681 61.4931C84.2014 60.5681 83.9572 59.4636 83.9572 58.1723H83.5114C83.5114 59.5198 83.7664 60.6976 84.2853 61.6982L84.681 61.4931ZM83.9572 58.1723V49.4802H83.5114V58.1723H83.9572ZM83.7343 49.7031H87.4786V49.2573H83.7343V49.7031ZM87.2557 49.4802V57.6374H87.7014V49.4802H87.2557ZM87.2557 57.6374C87.2557 58.85 87.5592 59.8204 88.1969 60.516L88.5254 60.2148C87.9863 59.6266 87.7014 58.7783 87.7014 57.6374H87.2557ZM88.199 60.5183C88.8372 61.1952 89.7028 61.5243 90.7682 61.5243V61.0786C89.801 61.0786 89.0618 60.7836 88.5233 60.2125L88.199 60.5183ZM90.7682 61.5243C91.8501 61.5243 92.7251 61.196 93.3641 60.5183L93.0398 60.2125C92.502 60.7828 91.7546 61.0786 90.7682 61.0786V61.5243ZM93.3663 60.516C94.0039 59.8204 94.3074 58.85 94.3074 57.6374H93.8617C93.8617 58.7783 93.5768 59.6266 93.0377 60.2148L93.3663 60.516ZM94.3074 57.6374V49.4802H93.8617V57.6374H94.3074ZM94.0845 49.7031H97.8556V49.2573H94.0845V49.7031ZM112.168 50.9512L112.008 51.1062L112.009 51.1075L112.168 50.9512ZM113.799 64.2969V64.5197H114.022V64.2969H113.799ZM110.055 64.2969H109.832V64.5197H110.055V64.2969ZM109.172 53.4117L109.008 53.5623L109.01 53.5646L109.172 53.4117ZM104.305 53.4117L104.143 53.2587L104.142 53.2588L104.305 53.4117ZM103.422 64.2969V64.5197H103.645V64.2969H103.422ZM99.6778 64.2969H99.4549V64.5197H99.6778V64.2969ZM99.6778 49.4802V49.2573H99.4549V49.4802H99.6778ZM103.422 49.4802H103.645V49.2573H103.422V49.4802ZM103.422 51.3256H103.199V51.9752L103.598 51.4624L103.422 51.3256ZM105.321 49.8279L105.415 50.03L105.417 50.029L105.321 49.8279ZM107.888 49.4891C109.602 49.4891 110.967 50.0321 112.008 51.1062L112.328 50.7962C111.193 49.6237 109.705 49.0434 107.888 49.0434V49.4891ZM112.009 51.1075C113.045 52.1602 113.576 53.6488 113.576 55.6048H114.022C114.022 53.5669 113.466 51.9531 112.327 50.7949L112.009 51.1075ZM113.576 55.6048V64.2969H114.022V55.6048H113.576ZM113.799 64.074H110.055V64.5197H113.799V64.074ZM110.278 64.2969V56.1129H109.832V64.2969H110.278ZM110.278 56.1129C110.278 54.9008 109.974 53.9376 109.334 53.2588L109.01 53.5646C109.547 54.134 109.832 54.9716 109.832 56.1129H110.278ZM109.336 53.2611C108.699 52.5654 107.833 52.226 106.765 52.226V52.6718C107.73 52.6718 108.469 52.9743 109.008 53.5623L109.336 53.2611ZM106.765 52.226C105.681 52.226 104.798 52.5645 104.143 53.2587L104.467 53.5647C105.024 52.9751 105.781 52.6718 106.765 52.6718V52.226ZM104.142 53.2588C103.503 53.9376 103.199 54.9008 103.199 56.1129H103.645C103.645 54.9716 103.93 54.134 104.467 53.5646L104.142 53.2588ZM103.199 56.1129V64.2969H103.645V56.1129H103.199ZM103.422 64.074H99.6778V64.5197H103.422V64.074ZM99.9007 64.2969V49.4802H99.4549V64.2969H99.9007ZM99.6778 49.7031H103.422V49.2573H99.6778V49.7031ZM103.199 49.4802V51.3256H103.645V49.4802H103.199ZM103.598 51.4624C104.075 50.8496 104.679 50.3723 105.415 50.03L105.227 49.6258C104.429 49.9967 103.768 50.5178 103.246 51.1888L103.598 51.4624ZM105.417 50.029C106.17 49.6699 106.992 49.4891 107.888 49.4891V49.0434C106.93 49.0434 106.041 49.2371 105.225 49.6268L105.417 50.029ZM115.407 52.8501L115.21 52.7468L115.209 52.7492L115.407 52.8501ZM117.868 50.1756L117.983 50.3664L117.983 50.3664L117.868 50.1756ZM124.073 49.8814L123.975 50.0816L123.978 50.0831L124.073 49.8814ZM126.159 51.5396L125.98 51.6726L126.382 52.2128V51.5396H126.159ZM126.159 44.5057V44.2828H125.936V44.5057H126.159ZM129.957 44.5057H130.179V44.2828H129.957V44.5057ZM129.957 64.2969V64.5197H130.179V64.2969H129.957ZM126.159 64.2969H125.936V64.5197H126.159V64.2969ZM126.159 62.1038H126.382V61.3362L125.971 61.9844L126.159 62.1038ZM124.206 63.869L124.102 63.6722L124.102 63.6722L124.206 63.869ZM117.868 63.5748L117.985 63.3854L117.985 63.3854L117.868 63.5748ZM115.407 60.8735L115.208 60.9732L115.21 60.9768L115.407 60.8735ZM125.651 54.5617L125.455 54.6677L125.456 54.67L125.651 54.5617ZM124.206 53.064L124.093 53.2562L124.098 53.2586L124.206 53.064ZM120.328 53.0373L120.217 52.8441L120.217 52.8441L120.328 53.0373ZM118.884 54.535L118.69 54.425L118.689 54.4268L118.884 54.535ZM118.884 59.1886L118.687 59.2925L118.69 59.2986L118.884 59.1886ZM120.328 60.7131L120.213 60.9037L120.215 60.9052L120.328 60.7131ZM124.206 60.7398L124.315 60.9344L124.319 60.9319L124.206 60.7398ZM125.651 59.2421L125.845 59.3503L125.847 59.3481L125.651 59.2421ZM114.748 56.8351C114.748 55.367 115.036 54.0742 115.606 52.951L115.209 52.7492C114.602 53.9438 114.302 55.3076 114.302 56.8351H114.748ZM115.605 52.9534C116.194 51.8275 116.987 50.9676 117.983 50.3664L117.753 49.9848C116.681 50.6316 115.833 51.5548 115.21 52.7468L115.605 52.9534ZM117.983 50.3664C118.981 49.7644 120.091 49.4624 121.318 49.4624V49.0166C120.013 49.0166 118.823 49.3387 117.753 49.9848L117.983 50.3664ZM121.318 49.4624C122.246 49.4624 123.131 49.6684 123.975 50.0815L124.171 49.6812C123.267 49.2385 122.315 49.0166 121.318 49.0166V49.4624ZM123.978 50.0831C124.822 50.4794 125.487 51.0099 125.98 51.6726L126.338 51.4066C125.796 50.6785 125.07 50.1035 124.167 49.6796L123.978 50.0831ZM126.382 51.5396V44.5057H125.936V51.5396H126.382ZM126.159 44.7285H129.957V44.2828H126.159V44.7285ZM129.734 44.5057V64.2969H130.179V44.5057H129.734ZM129.957 64.074H126.159V64.5197H129.957V64.074ZM126.382 64.2969V62.1038H125.936V64.2969H126.382ZM125.971 61.9844C125.53 62.6798 124.909 63.2428 124.102 63.6722L124.311 64.0657C125.18 63.6036 125.861 62.9899 126.347 62.2232L125.971 61.9844ZM124.102 63.6722C123.301 64.0982 122.366 64.3147 121.291 64.3147V64.7605C122.427 64.7605 123.436 64.5312 124.311 64.0657L124.102 63.6722ZM121.291 64.3147C120.084 64.3147 118.983 64.0048 117.985 63.3854L117.75 63.7641C118.821 64.4285 120.003 64.7605 121.291 64.7605V64.3147ZM117.985 63.3854C116.988 62.7661 116.194 61.8966 115.605 60.7702L115.21 60.9768C115.833 62.1684 116.68 63.0997 117.75 63.7641L117.985 63.3854ZM115.607 60.7739C115.036 59.6324 114.748 58.3213 114.748 56.8351H114.302C114.302 58.3799 114.602 59.7611 115.208 60.9732L115.607 60.7739ZM126.408 56.8885C126.408 55.9503 126.224 55.1355 125.845 54.4535L125.456 54.67C125.79 55.2717 125.963 56.0082 125.963 56.8885H126.408ZM125.847 54.4558C125.472 53.7619 124.961 53.2305 124.315 52.8695L124.098 53.2586C124.664 53.5751 125.116 54.0421 125.455 54.6677L125.847 54.4558ZM124.319 52.8719C123.679 52.4954 122.99 52.3063 122.254 52.3063V52.752C122.909 52.752 123.521 52.9194 124.093 53.2561L124.319 52.8719ZM122.254 52.3063C121.521 52.3063 120.84 52.4854 120.217 52.8441L120.44 53.2304C120.993 52.9116 121.597 52.752 122.254 52.752V52.3063ZM120.217 52.8441C119.59 53.205 119.082 53.7348 118.69 54.425L119.078 54.645C119.435 54.0157 119.89 53.5471 120.44 53.2304L120.217 52.8441ZM118.689 54.4268C118.311 55.1081 118.126 55.9137 118.126 56.8351H118.572C118.572 55.9734 118.744 55.2456 119.079 54.6432L118.689 54.4268ZM118.126 56.8351C118.126 57.7568 118.311 58.578 118.687 59.2924L119.081 59.0848C118.744 58.4442 118.572 57.6963 118.572 56.8351H118.126ZM118.69 59.2986C119.082 59.988 119.589 60.5254 120.213 60.9037L120.444 60.5225C119.891 60.1876 119.436 59.7087 119.078 59.0786L118.69 59.2986ZM120.215 60.9052C120.854 61.2811 121.535 61.4708 122.254 61.4708V61.0251C121.618 61.0251 121.015 60.8582 120.441 60.521L120.215 60.9052ZM122.254 61.4708C122.987 61.4708 123.676 61.2917 124.315 60.9344L124.098 60.5453C123.525 60.8654 122.911 61.0251 122.254 61.0251V61.4708ZM124.319 60.9319C124.961 60.5542 125.47 60.0254 125.845 59.3503L125.456 59.1339C125.118 59.7426 124.664 60.2122 124.093 60.5477L124.319 60.9319ZM125.847 59.3481C126.224 58.6496 126.408 57.8271 126.408 56.8885H125.963C125.963 57.7687 125.79 58.5152 125.455 59.1361L125.847 59.3481Z" fill="white" mask="url(#path-4-outside-2_310_34)"/>
</g>
<defs>
<filter id="filter0_d_310_34" x="0.235596" y="4.74219" width="160.367" height="67.7969" filterUnits="userSpaceOnUse" color-interpolation-filters="sRGB">
<feFlood flood-opacity="0" result="BackgroundImageFix"/>
<feColorMatrix in="SourceAlpha" type="matrix" values="0 0 0 0 0 0 0 0 0 0 0 0 0 0 0 0 0 0 127 0" result="hardAlpha"/>
<feOffset dy="4"/>
<feGaussianBlur stdDeviation="2"/>
<feComposite in2="hardAlpha" operator="out"/>
<feColorMatrix type="matrix" values="0 0 0 0 0 0 0 0 0 0 0 0 0 0 0 0 0 0 0.25 0"/>
<feBlend mode="normal" in2="BackgroundImageFix" result="effect1_dropShadow_310_34"/>
<feBlend mode="normal" in="SourceGraphic" in2="effect1_dropShadow_310_34" result="shape"/>
</filter>
<filter id="filter1_f_310_34" x="0.235596" y="0.742188" width="160.367" height="57.7109" filterUnits="userSpaceOnUse" color-interpolation-filters="sRGB">
<feFlood flood-opacity="0" result="BackgroundImageFix"/>
<feBlend mode="normal" in="SourceGraphic" in2="BackgroundImageFix" result="shape"/>
<feGaussianBlur stdDeviation="2" result="effect1_foregroundBlur_310_34"/>
</filter>
</defs>
</svg>
