<svg width="237" height="237" viewBox="0 0 237 237" fill="none" xmlns="http://www.w3.org/2000/svg">
<circle cx="118.5" cy="118.5" r="116.5" fill="black" stroke="white" stroke-width="4"/>
<path d="M58.3267 154H46.3239L81.0398 59.4545H92.858L127.574 154H115.571L87.3182 74.4119H86.5795L58.3267 154ZM62.7585 117.068H111.139V127.224H62.7585V117.068Z" fill="white"/>
<path d="M168.087 103.099C167.276 98.4583 164.833 94.9557 160.758 92.5909C156.682 90.2262 151.787 89.2012 146.071 89.5159C141.892 89.7461 138.272 90.6235 135.212 92.1482C132.183 93.6712 129.857 95.664 128.236 98.1267C126.646 100.588 125.933 103.324 126.099 106.335C126.238 108.855 126.956 110.989 128.255 112.736C129.582 114.451 131.231 115.855 133.202 116.948C135.172 118.011 137.223 118.869 139.355 119.522C141.485 120.145 143.439 120.638 145.216 121.003L154.945 123.056C157.439 123.566 160.223 124.307 163.298 125.278C166.402 126.247 169.392 127.639 172.266 129.454C175.169 131.236 177.611 133.598 179.591 136.54C181.572 139.483 182.684 143.166 182.928 147.592C183.208 152.693 182.126 157.376 179.679 161.641C177.263 165.904 173.571 169.39 168.603 172.099C163.667 174.806 157.572 176.359 150.32 176.758C143.559 177.13 137.645 176.362 132.578 174.452C127.541 172.541 123.501 169.712 120.459 165.965C117.448 162.216 115.616 157.771 114.963 152.629L126.763 151.979C127.266 155.527 128.627 158.411 130.846 160.631C133.093 162.819 135.861 164.393 139.15 165.352C142.469 166.279 146.002 166.639 149.751 166.433C154.115 166.192 157.994 165.27 161.389 163.665C164.782 162.03 167.422 159.881 169.31 157.219C171.196 154.526 172.044 151.458 171.855 148.016C171.682 144.882 170.666 142.38 168.806 140.509C166.946 138.639 164.553 137.168 161.628 136.096C158.702 135.024 155.555 134.119 152.185 133.38L140.386 130.7C132.894 128.986 126.889 126.281 122.37 122.584C117.851 118.888 115.417 113.859 115.067 107.498C114.776 102.212 115.951 97.524 118.592 93.4332C121.262 89.31 124.965 86.0238 129.7 83.5746C134.465 81.093 139.858 79.6864 145.881 79.3547C151.966 79.0197 157.434 79.8128 162.287 81.7341C167.138 83.6246 171.049 86.3682 174.021 89.965C177.024 93.5601 178.734 97.7349 179.15 102.49L168.087 103.099Z" fill="white"/>
</svg>
